<?xml version="1.0" encoding="utf-8" standalone="no"?>
<!DOCTYPE svg PUBLIC "-//W3C//DTD SVG 1.1//EN"
  "http://www.w3.org/Graphics/SVG/1.1/DTD/svg11.dtd">
<svg xmlns:xlink="http://www.w3.org/1999/xlink" width="1440pt" height="720pt" viewBox="0 0 1440 720" xmlns="http://www.w3.org/2000/svg" version="1.1">
 <metadata>
  <rdf:RDF xmlns:dc="http://purl.org/dc/elements/1.1/" xmlns:cc="http://creativecommons.org/ns#" xmlns:rdf="http://www.w3.org/1999/02/22-rdf-syntax-ns#">
   <cc:Work>
    <dc:type rdf:resource="http://purl.org/dc/dcmitype/StillImage"/>
    <dc:date>2025-04-08T12:48:10.211189</dc:date>
    <dc:format>image/svg+xml</dc:format>
    <dc:creator>
     <cc:Agent>
      <dc:title>Matplotlib v3.7.5, https://matplotlib.org/</dc:title>
     </cc:Agent>
    </dc:creator>
   </cc:Work>
  </rdf:RDF>
 </metadata>
 <defs>
  <style type="text/css">*{stroke-linejoin: round; stroke-linecap: butt}</style>
 </defs>
 <g id="figure_1">
  <g id="patch_1">
   <path d="M 0 720 
L 1440 720 
L 1440 0 
L 0 0 
z
" style="fill: #ffffff"/>
  </g>
  <g id="axes_1">
   <g id="patch_2">
    <path d="M 180 640.8 
L 687.272727 640.8 
L 687.272727 86.4 
L 180 86.4 
z
" style="fill: #ffffff"/>
   </g>
   <g id="matplotlib.axis_1">
    <g id="xtick_1">
     <g id="line2d_1">
      <defs>
       <path id="m6b76681c51" d="M 0 0 
L 0 3.5 
" style="stroke: #000000; stroke-width: 0.8"/>
      </defs>
      <g>
       <use xlink:href="#m6b76681c51" x="201.530943" y="640.8" style="stroke: #000000; stroke-width: 0.8"/>
      </g>
     </g>
     <g id="text_1">
      <!-- 0 -->
      <g transform="translate(198.349693 655.398438) scale(0.1 -0.1)">
       <defs>
        <path id="DejaVuSans-30" d="M 2034 4250 
Q 1547 4250 1301 3770 
Q 1056 3291 1056 2328 
Q 1056 1369 1301 889 
Q 1547 409 2034 409 
Q 2525 409 2770 889 
Q 3016 1369 3016 2328 
Q 3016 3291 2770 3770 
Q 2525 4250 2034 4250 
z
M 2034 4750 
Q 2819 4750 3233 4129 
Q 3647 3509 3647 2328 
Q 3647 1150 3233 529 
Q 2819 -91 2034 -91 
Q 1250 -91 836 529 
Q 422 1150 422 2328 
Q 422 3509 836 4129 
Q 1250 4750 2034 4750 
z
" transform="scale(0.015625)"/>
       </defs>
       <use xlink:href="#DejaVuSans-30"/>
      </g>
     </g>
    </g>
    <g id="xtick_2">
     <g id="line2d_2">
      <g>
       <use xlink:href="#m6b76681c51" x="278.647503" y="640.8" style="stroke: #000000; stroke-width: 0.8"/>
      </g>
     </g>
     <g id="text_2">
      <!-- 5000 -->
      <g transform="translate(265.922503 655.398438) scale(0.1 -0.1)">
       <defs>
        <path id="DejaVuSans-35" d="M 691 4666 
L 3169 4666 
L 3169 4134 
L 1269 4134 
L 1269 2991 
Q 1406 3038 1543 3061 
Q 1681 3084 1819 3084 
Q 2600 3084 3056 2656 
Q 3513 2228 3513 1497 
Q 3513 744 3044 326 
Q 2575 -91 1722 -91 
Q 1428 -91 1123 -41 
Q 819 9 494 109 
L 494 744 
Q 775 591 1075 516 
Q 1375 441 1709 441 
Q 2250 441 2565 725 
Q 2881 1009 2881 1497 
Q 2881 1984 2565 2268 
Q 2250 2553 1709 2553 
Q 1456 2553 1204 2497 
Q 953 2441 691 2322 
L 691 4666 
z
" transform="scale(0.015625)"/>
       </defs>
       <use xlink:href="#DejaVuSans-35"/>
       <use xlink:href="#DejaVuSans-30" x="63.623047"/>
       <use xlink:href="#DejaVuSans-30" x="127.246094"/>
       <use xlink:href="#DejaVuSans-30" x="190.869141"/>
      </g>
     </g>
    </g>
    <g id="xtick_3">
     <g id="line2d_3">
      <g>
       <use xlink:href="#m6b76681c51" x="355.764062" y="640.8" style="stroke: #000000; stroke-width: 0.8"/>
      </g>
     </g>
     <g id="text_3">
      <!-- 10000 -->
      <g transform="translate(339.857812 655.398438) scale(0.1 -0.1)">
       <defs>
        <path id="DejaVuSans-31" d="M 794 531 
L 1825 531 
L 1825 4091 
L 703 3866 
L 703 4441 
L 1819 4666 
L 2450 4666 
L 2450 531 
L 3481 531 
L 3481 0 
L 794 0 
L 794 531 
z
" transform="scale(0.015625)"/>
       </defs>
       <use xlink:href="#DejaVuSans-31"/>
       <use xlink:href="#DejaVuSans-30" x="63.623047"/>
       <use xlink:href="#DejaVuSans-30" x="127.246094"/>
       <use xlink:href="#DejaVuSans-30" x="190.869141"/>
       <use xlink:href="#DejaVuSans-30" x="254.492188"/>
      </g>
     </g>
    </g>
    <g id="xtick_4">
     <g id="line2d_4">
      <g>
       <use xlink:href="#m6b76681c51" x="432.880621" y="640.8" style="stroke: #000000; stroke-width: 0.8"/>
      </g>
     </g>
     <g id="text_4">
      <!-- 15000 -->
      <g transform="translate(416.974371 655.398438) scale(0.1 -0.1)">
       <use xlink:href="#DejaVuSans-31"/>
       <use xlink:href="#DejaVuSans-35" x="63.623047"/>
       <use xlink:href="#DejaVuSans-30" x="127.246094"/>
       <use xlink:href="#DejaVuSans-30" x="190.869141"/>
       <use xlink:href="#DejaVuSans-30" x="254.492188"/>
      </g>
     </g>
    </g>
    <g id="xtick_5">
     <g id="line2d_5">
      <g>
       <use xlink:href="#m6b76681c51" x="509.997181" y="640.8" style="stroke: #000000; stroke-width: 0.8"/>
      </g>
     </g>
     <g id="text_5">
      <!-- 20000 -->
      <g transform="translate(494.090931 655.398438) scale(0.1 -0.1)">
       <defs>
        <path id="DejaVuSans-32" d="M 1228 531 
L 3431 531 
L 3431 0 
L 469 0 
L 469 531 
Q 828 903 1448 1529 
Q 2069 2156 2228 2338 
Q 2531 2678 2651 2914 
Q 2772 3150 2772 3378 
Q 2772 3750 2511 3984 
Q 2250 4219 1831 4219 
Q 1534 4219 1204 4116 
Q 875 4013 500 3803 
L 500 4441 
Q 881 4594 1212 4672 
Q 1544 4750 1819 4750 
Q 2544 4750 2975 4387 
Q 3406 4025 3406 3419 
Q 3406 3131 3298 2873 
Q 3191 2616 2906 2266 
Q 2828 2175 2409 1742 
Q 1991 1309 1228 531 
z
" transform="scale(0.015625)"/>
       </defs>
       <use xlink:href="#DejaVuSans-32"/>
       <use xlink:href="#DejaVuSans-30" x="63.623047"/>
       <use xlink:href="#DejaVuSans-30" x="127.246094"/>
       <use xlink:href="#DejaVuSans-30" x="190.869141"/>
       <use xlink:href="#DejaVuSans-30" x="254.492188"/>
      </g>
     </g>
    </g>
    <g id="xtick_6">
     <g id="line2d_6">
      <g>
       <use xlink:href="#m6b76681c51" x="587.11374" y="640.8" style="stroke: #000000; stroke-width: 0.8"/>
      </g>
     </g>
     <g id="text_6">
      <!-- 25000 -->
      <g transform="translate(571.20749 655.398438) scale(0.1 -0.1)">
       <use xlink:href="#DejaVuSans-32"/>
       <use xlink:href="#DejaVuSans-35" x="63.623047"/>
       <use xlink:href="#DejaVuSans-30" x="127.246094"/>
       <use xlink:href="#DejaVuSans-30" x="190.869141"/>
       <use xlink:href="#DejaVuSans-30" x="254.492188"/>
      </g>
     </g>
    </g>
    <g id="xtick_7">
     <g id="line2d_7">
      <g>
       <use xlink:href="#m6b76681c51" x="664.230299" y="640.8" style="stroke: #000000; stroke-width: 0.8"/>
      </g>
     </g>
     <g id="text_7">
      <!-- 30000 -->
      <g transform="translate(648.324049 655.398438) scale(0.1 -0.1)">
       <defs>
        <path id="DejaVuSans-33" d="M 2597 2516 
Q 3050 2419 3304 2112 
Q 3559 1806 3559 1356 
Q 3559 666 3084 287 
Q 2609 -91 1734 -91 
Q 1441 -91 1130 -33 
Q 819 25 488 141 
L 488 750 
Q 750 597 1062 519 
Q 1375 441 1716 441 
Q 2309 441 2620 675 
Q 2931 909 2931 1356 
Q 2931 1769 2642 2001 
Q 2353 2234 1838 2234 
L 1294 2234 
L 1294 2753 
L 1863 2753 
Q 2328 2753 2575 2939 
Q 2822 3125 2822 3475 
Q 2822 3834 2567 4026 
Q 2313 4219 1838 4219 
Q 1578 4219 1281 4162 
Q 984 4106 628 3988 
L 628 4550 
Q 988 4650 1302 4700 
Q 1616 4750 1894 4750 
Q 2613 4750 3031 4423 
Q 3450 4097 3450 3541 
Q 3450 3153 3228 2886 
Q 3006 2619 2597 2516 
z
" transform="scale(0.015625)"/>
       </defs>
       <use xlink:href="#DejaVuSans-33"/>
       <use xlink:href="#DejaVuSans-30" x="63.623047"/>
       <use xlink:href="#DejaVuSans-30" x="127.246094"/>
       <use xlink:href="#DejaVuSans-30" x="190.869141"/>
       <use xlink:href="#DejaVuSans-30" x="254.492188"/>
      </g>
     </g>
    </g>
   </g>
   <g id="matplotlib.axis_2">
    <g id="ytick_1">
     <g id="line2d_8">
      <defs>
       <path id="mcbc444c09e" d="M 0 0 
L -3.5 0 
" style="stroke: #000000; stroke-width: 0.8"/>
      </defs>
      <g>
       <use xlink:href="#mcbc444c09e" x="180" y="540.233949" style="stroke: #000000; stroke-width: 0.8"/>
      </g>
     </g>
     <g id="text_8">
      <!-- 5 -->
      <g transform="translate(166.6375 544.033167) scale(0.1 -0.1)">
       <use xlink:href="#DejaVuSans-35"/>
      </g>
     </g>
    </g>
    <g id="ytick_2">
     <g id="line2d_9">
      <g>
       <use xlink:href="#mcbc444c09e" x="180" y="439.09647" style="stroke: #000000; stroke-width: 0.8"/>
      </g>
     </g>
     <g id="text_9">
      <!-- 10 -->
      <g transform="translate(160.275 442.895689) scale(0.1 -0.1)">
       <use xlink:href="#DejaVuSans-31"/>
       <use xlink:href="#DejaVuSans-30" x="63.623047"/>
      </g>
     </g>
    </g>
    <g id="ytick_3">
     <g id="line2d_10">
      <g>
       <use xlink:href="#mcbc444c09e" x="180" y="337.958992" style="stroke: #000000; stroke-width: 0.8"/>
      </g>
     </g>
     <g id="text_10">
      <!-- 15 -->
      <g transform="translate(160.275 341.758211) scale(0.1 -0.1)">
       <use xlink:href="#DejaVuSans-31"/>
       <use xlink:href="#DejaVuSans-35" x="63.623047"/>
      </g>
     </g>
    </g>
    <g id="ytick_4">
     <g id="line2d_11">
      <g>
       <use xlink:href="#mcbc444c09e" x="180" y="236.821514" style="stroke: #000000; stroke-width: 0.8"/>
      </g>
     </g>
     <g id="text_11">
      <!-- 20 -->
      <g transform="translate(160.275 240.620733) scale(0.1 -0.1)">
       <use xlink:href="#DejaVuSans-32"/>
       <use xlink:href="#DejaVuSans-30" x="63.623047"/>
      </g>
     </g>
    </g>
    <g id="ytick_5">
     <g id="line2d_12">
      <g>
       <use xlink:href="#mcbc444c09e" x="180" y="135.684036" style="stroke: #000000; stroke-width: 0.8"/>
      </g>
     </g>
     <g id="text_12">
      <!-- 25 -->
      <g transform="translate(160.275 139.483254) scale(0.1 -0.1)">
       <use xlink:href="#DejaVuSans-32"/>
       <use xlink:href="#DejaVuSans-35" x="63.623047"/>
      </g>
     </g>
    </g>
   </g>
   <g id="line2d_13">
    <path d="M 203.057851 111.6 
L 204.600182 163.52837 
L 206.142514 174.108466 
L 207.684845 150.822598 
L 209.227176 185.394546 
L 210.769507 169.114872 
L 212.311838 217.58654 
L 213.85417 230.600335 
L 215.396501 270.246228 
L 216.938832 260.161266 
L 218.481163 299.013998 
L 220.023494 297.276225 
L 221.565825 277.864665 
L 223.108157 324.459706 
L 224.650488 328.049908 
L 226.192819 358.747066 
L 227.73515 326.189742 
L 229.277481 403.638994 
L 230.819813 433.29057 
L 232.362144 433.138806 
L 233.904475 416.620691 
L 235.446806 474.174526 
L 236.989137 499.515219 
L 238.531469 496.950571 
L 240.0738 500.525577 
L 241.616131 487.089921 
L 243.158462 525.017915 
L 244.700793 572.242159 
L 246.243124 575.490029 
L 247.785456 573.137725 
L 249.327787 573.582172 
L 250.870118 588.028138 
L 252.412449 577.902999 
L 253.95478 585.90244 
L 255.497112 592.87412 
L 257.039443 600.715367 
L 258.581774 603.374773 
L 260.124105 598.529329 
L 261.666436 605.533552 
L 263.208768 602.543409 
L 264.751099 605.613266 
L 266.29343 608.017314 
L 267.835761 607.173209 
L 269.378092 608.112947 
L 270.920423 610.044868 
L 272.462755 609.596886 
L 274.005086 610.85477 
L 275.547417 610.7048 
L 277.089748 610.116321 
L 278.632079 610.572163 
L 280.174411 611.723591 
L 281.716742 610.768193 
L 283.259073 611.199526 
L 284.801404 611.271992 
L 286.343735 611.172937 
L 287.886067 612.618288 
L 289.428398 611.793954 
L 290.970729 611.940689 
L 292.51306 611.286524 
L 294.055391 612.569954 
L 295.597722 613.372259 
L 297.140054 613.264376 
L 300.224716 613.411934 
L 301.767047 613.20545 
L 303.309378 613.307868 
L 304.85171 613.095451 
L 306.394041 613.617227 
L 307.936372 613.575376 
L 309.478703 613.666439 
L 311.021034 613.391474 
L 312.563365 613.59697 
L 315.648028 613.399438 
L 317.190359 613.671218 
L 318.73269 613.634995 
L 320.275021 613.807905 
L 321.817353 613.815967 
L 323.359684 613.483115 
L 324.902015 613.681601 
L 326.444346 613.592665 
L 327.986677 613.974224 
L 331.07134 613.583397 
L 334.156002 614.020697 
L 335.698333 613.611509 
L 337.240664 613.866844 
L 340.325327 613.96044 
L 341.867658 614.481679 
L 346.494652 614.594576 
L 349.579314 614.734015 
L 354.206308 614.426415 
L 355.748639 614.596308 
L 361.917963 614.748753 
L 366.544957 614.740477 
L 368.087288 614.962806 
L 371.171951 614.422278 
L 372.714282 614.816604 
L 375.798944 614.725182 
L 383.5106 614.843129 
L 385.052931 614.633421 
L 386.595262 614.970584 
L 389.679925 614.695108 
L 391.222256 614.879989 
L 395.84925 614.690464 
L 397.391581 614.936162 
L 398.933912 614.820962 
L 402.018574 614.900041 
L 403.560905 614.608291 
L 405.103237 614.83931 
L 406.645568 614.707735 
L 408.187899 614.935202 
L 417.441886 614.880045 
L 418.984217 614.718802 
L 420.526549 614.841307 
L 423.611211 614.765889 
L 425.153542 614.869899 
L 426.695873 614.735889 
L 431.322867 614.958111 
L 432.865198 614.706645 
L 435.94986 615.007113 
L 437.492192 614.679369 
L 439.034523 614.824739 
L 440.576854 614.809152 
L 442.119185 615.143459 
L 443.661516 614.704766 
L 446.746179 615.069871 
L 448.28851 615.035883 
L 449.830841 614.692572 
L 452.915503 615.117534 
L 456.000166 615.039379 
L 462.169491 615.101946 
L 465.254153 614.930928 
L 466.796484 615.10902 
L 468.338815 614.99506 
L 471.423478 615.012237 
L 472.965809 614.789788 
L 479.135134 615.055031 
L 480.677465 614.898526 
L 483.762127 614.983614 
L 485.304458 614.948931 
L 486.84679 615.218421 
L 488.389121 614.854157 
L 489.931452 614.93216 
L 491.473783 615.187558 
L 494.558446 615.129744 
L 496.100777 615.311502 
L 499.185439 615.105451 
L 500.72777 615.177177 
L 502.270101 614.866663 
L 503.812433 615.120086 
L 506.897095 615.213369 
L 508.439426 615.004843 
L 509.981757 615.20824 
L 513.06642 615.144677 
L 514.608751 614.980507 
L 516.151082 615.310951 
L 517.693413 615.058654 
L 519.235744 615.030719 
L 520.778076 615.296765 
L 522.320407 615.364781 
L 523.862738 615.236347 
L 525.405069 615.232011 
L 526.9474 614.992415 
L 528.489732 615.198545 
L 531.574394 615.125856 
L 533.116725 615.31554 
L 534.659056 615.152537 
L 536.201388 615.319939 
L 537.743719 615.199934 
L 539.28605 615.255088 
L 540.828381 615.515676 
L 542.370712 615.154933 
L 543.913043 615.318998 
L 546.997706 615.218357 
L 548.540037 615.460632 
L 550.082368 615.232842 
L 551.624699 615.190847 
L 553.167031 615.331268 
L 554.709362 615.135219 
L 556.251693 614.711616 
L 557.794024 615.293489 
L 559.336355 615.406875 
L 562.421018 615.271827 
L 563.963349 615.145345 
L 565.50568 615.475673 
L 567.048011 615.154108 
L 571.675005 615.335197 
L 573.217336 615.39061 
L 574.759667 615.287135 
L 576.301998 614.774488 
L 577.84433 615.125824 
L 579.386661 615.30525 
L 580.928992 615.173515 
L 582.471323 615.325341 
L 585.555986 615.199353 
L 587.098317 615.11023 
L 591.72531 615.391668 
L 596.352304 615.122587 
L 597.894635 615.369291 
L 599.436966 615.348273 
L 600.979297 615.205375 
L 602.521629 615.291574 
L 604.06396 615.018805 
L 607.148622 615.324136 
L 608.690953 615.277611 
L 610.233285 615.467613 
L 611.775616 615.222245 
L 613.317947 615.116941 
L 614.860278 615.315298 
L 616.402609 615.014511 
L 617.94494 615.488537 
L 619.487272 615.433158 
L 621.029603 615.116016 
L 622.571934 615.289613 
L 630.28359 615.177992 
L 631.825921 614.938163 
L 633.368252 615.278097 
L 634.910583 615.399176 
L 636.452915 615.255664 
L 637.995246 615.231239 
L 639.537577 614.983776 
L 641.079908 615.6 
L 644.164571 615.192412 
L 647.249233 615.314749 
L 648.791564 615.291925 
L 650.333895 615.13354 
L 651.876227 615.324646 
L 653.418558 615.334717 
L 654.960889 615.460892 
L 656.50322 615.191225 
L 658.045551 615.390476 
L 659.587882 615.051244 
L 661.130214 615.360948 
L 664.214876 615.275429 
L 664.214876 615.275429 
" clip-path="url(#peee014c8cb)" style="fill: none; stroke: #1f77b4; stroke-width: 1.5; stroke-linecap: square"/>
   </g>
   <g id="line2d_14">
    <path d="M 203.057851 176.880248 
L 204.600182 249.145918 
L 206.142514 272.293451 
L 207.684845 298.530719 
L 209.227176 344.011363 
L 210.769507 364.641166 
L 212.311838 408.044887 
L 213.85417 459.696249 
L 215.396501 447.574685 
L 216.938832 452.028835 
L 218.481163 447.250389 
L 220.023494 518.417538 
L 221.565825 498.099402 
L 223.108157 559.152326 
L 224.650488 576.898766 
L 226.192819 571.123439 
L 227.73515 578.555771 
L 229.277481 584.858922 
L 230.819813 586.737092 
L 232.362144 596.603207 
L 233.904475 597.155836 
L 235.446806 592.14465 
L 236.989137 598.99817 
L 238.531469 600.586044 
L 240.0738 601.063929 
L 241.616131 603.735498 
L 243.158462 603.554267 
L 244.700793 602.730245 
L 246.243124 604.712832 
L 247.785456 603.981074 
L 249.327787 605.937889 
L 250.870118 606.203617 
L 252.412449 606.179374 
L 255.497112 607.386327 
L 257.039443 607.297577 
L 258.581774 608.012508 
L 260.124105 608.364808 
L 261.666436 608.205054 
L 263.208768 608.479349 
L 264.751099 608.531397 
L 266.29343 608.701848 
L 267.835761 609.466719 
L 269.378092 609.312926 
L 270.920423 608.982305 
L 272.462755 609.906391 
L 274.005086 609.429673 
L 275.547417 610.005699 
L 277.089748 610.011255 
L 278.632079 610.241544 
L 280.174411 610.339219 
L 281.716742 610.635022 
L 284.801404 610.479005 
L 286.343735 610.733395 
L 287.886067 610.262239 
L 289.428398 610.99654 
L 290.970729 610.529705 
L 292.51306 611.107597 
L 294.055391 610.909509 
L 295.597722 611.780763 
L 297.140054 611.950173 
L 298.682385 611.611731 
L 300.224716 611.863994 
L 301.767047 611.851419 
L 304.85171 612.159897 
L 306.394041 611.916534 
L 311.021034 612.292719 
L 317.190359 612.13841 
L 320.275021 612.52384 
L 321.817353 612.415546 
L 323.359684 612.001996 
L 324.902015 612.207741 
L 326.444346 612.533982 
L 327.986677 612.38499 
L 329.529009 612.444159 
L 331.07134 612.336432 
L 332.613671 612.351605 
L 334.156002 611.965878 
L 335.698333 612.694527 
L 340.325327 612.538793 
L 341.867658 613.082807 
L 343.409989 613.025878 
L 344.95232 613.174724 
L 346.494652 613.202411 
L 348.036983 613.058387 
L 349.579314 613.296916 
L 352.663976 613.386505 
L 354.206308 613.181986 
L 355.748639 613.193518 
L 357.29097 613.444625 
L 358.833301 613.33163 
L 360.375632 613.451447 
L 365.002626 613.203184 
L 366.544957 613.361866 
L 368.087288 613.358397 
L 369.629619 613.474928 
L 371.171951 613.273372 
L 375.798944 613.512073 
L 377.341275 613.398456 
L 378.883607 613.497874 
L 380.425938 613.408189 
L 381.968269 613.510201 
L 383.5106 613.445317 
L 385.052931 613.263604 
L 388.137594 613.60891 
L 389.679925 613.392452 
L 392.764587 613.54483 
L 394.306918 613.291333 
L 397.391581 613.671924 
L 402.018574 613.579984 
L 403.560905 613.684917 
L 405.103237 613.474136 
L 406.645568 613.527424 
L 408.187899 613.706909 
L 409.73023 613.68105 
L 411.272561 613.467768 
L 412.814893 613.619727 
L 414.357224 613.659548 
L 415.899555 613.577088 
L 417.441886 613.799221 
L 418.984217 613.605023 
L 422.06888 613.710253 
L 423.611211 613.702952 
L 426.695873 613.556127 
L 429.780536 613.624173 
L 431.322867 613.581411 
L 434.407529 613.887768 
L 435.94986 613.584934 
L 437.492192 613.924789 
L 439.034523 613.725618 
L 440.576854 613.725954 
L 442.119185 613.882565 
L 449.830841 613.649538 
L 451.373172 613.857302 
L 452.915503 613.637878 
L 454.457835 613.836672 
L 456.000166 613.725114 
L 457.542497 613.806703 
L 460.627159 613.703074 
L 462.169491 613.848193 
L 465.254153 613.88182 
L 466.796484 613.696969 
L 469.881147 613.923376 
L 471.423478 613.781385 
L 472.965809 613.887731 
L 474.50814 613.651846 
L 476.050471 613.883139 
L 477.592802 613.95934 
L 479.135134 613.899443 
L 480.677465 613.366068 
L 482.219796 613.821974 
L 485.304458 613.7026 
L 486.84679 613.843556 
L 488.389121 613.680865 
L 491.473783 613.940126 
L 493.016114 613.859549 
L 494.558446 614.024169 
L 497.643108 614.053375 
L 499.185439 613.791561 
L 500.72777 613.989883 
L 505.354764 613.892012 
L 508.439426 613.832556 
L 509.981757 613.994603 
L 511.524089 613.813803 
L 525.405069 614.00749 
L 526.9474 614.145428 
L 530.032063 613.840956 
L 531.574394 613.991598 
L 533.116725 613.875115 
L 534.659056 614.036758 
L 536.201388 614.079713 
L 537.743719 613.8794 
L 540.828381 614.096143 
L 542.370712 613.9139 
L 543.913043 614.0315 
L 545.455375 613.88787 
L 546.997706 614.031532 
L 556.251693 614.014925 
L 557.794024 614.141388 
L 559.336355 614.147655 
L 560.878687 613.939295 
L 562.421018 614.12176 
L 563.963349 613.977698 
L 565.50568 613.978073 
L 567.048011 613.80932 
L 568.590342 614.014807 
L 582.471323 614.138395 
L 584.013654 614.229626 
L 585.555986 614.10254 
L 596.352304 614.102217 
L 597.894635 613.77142 
L 600.979297 614.12556 
L 604.06396 613.987794 
L 607.148622 614.166715 
L 608.690953 614.09858 
L 610.233285 614.160525 
L 611.775616 613.946225 
L 613.317947 613.949563 
L 614.860278 613.549963 
L 616.402609 614.02946 
L 619.487272 614.075502 
L 621.029603 613.827554 
L 622.571934 613.841294 
L 625.656596 614.317064 
L 627.198928 614.080645 
L 630.28359 613.930673 
L 634.910583 614.025636 
L 636.452915 614.23288 
L 641.079908 614.098931 
L 642.622239 614.214246 
L 647.249233 614.121353 
L 650.333895 614.175714 
L 651.876227 614.090036 
L 659.587882 614.220671 
L 661.130214 613.957498 
L 662.672545 613.943603 
L 664.214876 614.061898 
L 664.214876 614.061898 
" clip-path="url(#peee014c8cb)" style="fill: none; stroke: #ff7f0e; stroke-width: 1.5; stroke-linecap: square"/>
   </g>
   <g id="line2d_15">
    <path d="M 203.057851 130.239437 
L 204.600182 137.784141 
L 206.142514 191.859291 
L 207.684845 199.389673 
L 209.227176 202.934506 
L 210.769507 183.409379 
L 212.311838 196.053981 
L 213.85417 166.103146 
L 215.396501 216.212824 
L 216.938832 205.307799 
L 218.481163 268.736094 
L 220.023494 178.430766 
L 221.565825 252.235021 
L 223.108157 272.571846 
L 224.650488 272.747506 
L 226.192819 285.899539 
L 229.277481 332.010769 
L 230.819813 377.056595 
L 232.362144 376.541076 
L 233.904475 397.418883 
L 235.446806 295.336985 
L 236.989137 336.282819 
L 238.531469 419.176266 
L 240.0738 422.421257 
L 241.616131 431.607086 
L 243.158462 483.653662 
L 244.700793 484.408615 
L 246.243124 511.091922 
L 247.785456 522.415983 
L 249.327787 524.51042 
L 250.870118 533.258589 
L 252.412449 552.553223 
L 253.95478 559.34263 
L 255.497112 541.708872 
L 257.039443 591.265175 
L 258.581774 562.331704 
L 260.124105 596.383064 
L 261.666436 587.177485 
L 263.208768 593.422796 
L 264.751099 596.951874 
L 266.29343 590.763183 
L 267.835761 595.201481 
L 269.378092 601.062542 
L 270.920423 609.620626 
L 272.462755 605.855619 
L 274.005086 609.845963 
L 275.547417 610.680094 
L 277.089748 607.971957 
L 278.632079 610.27944 
L 280.174411 611.532031 
L 281.716742 610.72193 
L 283.259073 611.611506 
L 286.343735 611.169601 
L 287.886067 612.066121 
L 289.428398 611.052043 
L 290.970729 610.899597 
L 292.51306 611.286907 
L 294.055391 612.265244 
L 295.597722 613.529613 
L 297.140054 613.727265 
L 300.224716 613.702686 
L 301.767047 613.107607 
L 303.309378 613.920405 
L 304.85171 613.944616 
L 306.394041 613.851882 
L 307.936372 613.466626 
L 309.478703 613.820672 
L 311.021034 613.710044 
L 312.563365 613.910284 
L 314.105697 613.94005 
L 317.190359 614.329432 
L 318.73269 614.302132 
L 321.817353 613.859442 
L 323.359684 614.09855 
L 324.902015 613.862864 
L 326.444346 614.103572 
L 327.986677 613.738747 
L 329.529009 613.840157 
L 331.07134 614.098057 
L 332.613671 614.058511 
L 334.156002 613.906489 
L 335.698333 614.189066 
L 337.240664 613.592847 
L 338.782996 614.138249 
L 341.867658 614.546784 
L 343.409989 614.533976 
L 344.95232 614.846593 
L 352.663976 614.896908 
L 355.748639 614.787623 
L 357.29097 614.913098 
L 360.375632 614.827748 
L 361.917963 615.010417 
L 363.460295 615.006032 
L 366.544957 614.737634 
L 368.087288 614.907784 
L 369.629619 614.853921 
L 372.714282 614.992628 
L 374.256613 614.807659 
L 375.798944 614.811441 
L 377.341275 615.002206 
L 378.883607 614.75868 
L 380.425938 615.037496 
L 386.595262 614.946672 
L 389.679925 614.726898 
L 391.222256 615.038129 
L 403.560905 614.932318 
L 405.103237 615.159037 
L 408.187899 615.103853 
L 409.73023 614.918606 
L 411.272561 615.178859 
L 412.814893 614.94512 
L 418.984217 614.941267 
L 420.526549 615.196584 
L 422.06888 615.195824 
L 423.611211 614.983608 
L 429.780536 615.103017 
L 432.865198 614.982708 
L 434.407529 614.833571 
L 435.94986 615.063847 
L 439.034523 615.210583 
L 440.576854 615.075853 
L 451.373172 615.080699 
L 454.457835 615.022908 
L 456.000166 615.229035 
L 457.542497 615.089394 
L 460.627159 615.279964 
L 462.169491 615.041113 
L 465.254153 615.132046 
L 466.796484 615.303457 
L 469.881147 615.135242 
L 480.677465 615.16319 
L 482.219796 615.404297 
L 483.762127 615.115937 
L 485.304458 615.319947 
L 486.84679 615.222692 
L 488.389121 615.383298 
L 489.931452 615.390172 
L 491.473783 615.10296 
L 493.016114 614.997541 
L 494.558446 615.17084 
L 496.100777 615.19286 
L 497.643108 615.057347 
L 499.185439 615.242343 
L 500.72777 614.838523 
L 503.812433 615.365087 
L 505.354764 615.35528 
L 506.897095 615.127982 
L 508.439426 615.131038 
L 509.981757 615.373513 
L 511.524089 615.154459 
L 513.06642 615.397157 
L 514.608751 615.176593 
L 516.151082 615.493005 
L 517.693413 615.220006 
L 520.778076 615.461257 
L 522.320407 615.254003 
L 523.862738 615.227699 
L 525.405069 615.39148 
L 528.489732 615.09823 
L 530.032063 615.268636 
L 531.574394 615.179903 
L 533.116725 615.349487 
L 536.201388 615.042732 
L 537.743719 614.737342 
L 539.28605 615.157435 
L 540.828381 615.403648 
L 542.370712 614.920585 
L 545.455375 615.315228 
L 546.997706 615.148496 
L 548.540037 615.166297 
L 550.082368 615.46946 
L 553.167031 615.128796 
L 554.709362 615.268611 
L 556.251693 615.2629 
L 557.794024 615.376603 
L 559.336355 615.264585 
L 560.878687 615.511176 
L 562.421018 615.378934 
L 563.963349 615.442257 
L 565.50568 615.128609 
L 567.048011 615.378655 
L 568.590342 615.396212 
L 573.217336 615.151471 
L 574.759667 615.341583 
L 577.84433 615.392588 
L 579.386661 615.496571 
L 580.928992 615.400711 
L 582.471323 615.426504 
L 584.013654 615.337427 
L 588.640648 615.492252 
L 591.72531 615.162698 
L 593.267641 615.235191 
L 594.809973 615.495698 
L 596.352304 615.368178 
L 597.894635 615.127604 
L 599.436966 615.370384 
L 600.979297 615.285582 
L 602.521629 615.314265 
L 604.06396 615.557804 
L 605.606291 615.550209 
L 607.148622 615.240727 
L 608.690953 615.097787 
L 610.233285 615.331806 
L 613.317947 615.311708 
L 614.860278 615.346407 
L 616.402609 615.563533 
L 617.94494 615.576654 
L 622.571934 615.265868 
L 624.114265 615.16077 
L 625.656596 615.445555 
L 627.198928 615.181955 
L 628.741259 615.512179 
L 630.28359 615.037735 
L 631.825921 615.571345 
L 633.368252 615.242801 
L 634.910583 615.274123 
L 636.452915 615.550714 
L 637.995246 615.234243 
L 639.537577 615.284666 
L 641.079908 615.469484 
L 645.706902 615.535106 
L 647.249233 615.315482 
L 651.876227 615.547489 
L 653.418558 615.421896 
L 656.50322 615.58945 
L 658.045551 615.395431 
L 662.672545 615.583646 
L 664.214876 615.438327 
L 664.214876 615.438327 
" clip-path="url(#peee014c8cb)" style="fill: none; stroke: #2ca02c; stroke-width: 1.5; stroke-linecap: square"/>
   </g>
   <g id="line2d_16">
    <path d="M 203.057851 138.424613 
L 204.600182 179.658492 
L 206.142514 184.359215 
L 209.227176 235.77321 
L 210.769507 265.560357 
L 212.311838 257.358301 
L 213.85417 326.703803 
L 215.396501 407.416119 
L 216.938832 409.330625 
L 218.481163 387.925977 
L 220.023494 449.189164 
L 221.565825 455.730955 
L 223.108157 464.661184 
L 224.650488 513.185568 
L 226.192819 449.659403 
L 227.73515 533.522108 
L 229.277481 527.177119 
L 230.819813 557.161031 
L 232.362144 555.492517 
L 233.904475 582.805428 
L 235.446806 570.896429 
L 236.989137 564.534317 
L 238.531469 587.478678 
L 240.0738 592.23328 
L 241.616131 591.514169 
L 243.158462 596.727509 
L 244.700793 597.899165 
L 246.243124 602.688938 
L 247.785456 602.887822 
L 249.327787 603.23215 
L 250.870118 606.336927 
L 252.412449 606.626856 
L 253.95478 606.44626 
L 255.497112 607.268023 
L 257.039443 606.820671 
L 258.581774 607.507127 
L 260.124105 608.070905 
L 261.666436 608.926007 
L 263.208768 608.591308 
L 264.751099 609.056021 
L 266.29343 609.088132 
L 269.378092 610.498074 
L 270.920423 609.827138 
L 274.005086 610.262707 
L 277.089748 610.874412 
L 278.632079 610.738611 
L 280.174411 611.273292 
L 281.716742 611.220737 
L 283.259073 611.430533 
L 284.801404 610.645242 
L 286.343735 611.451053 
L 287.886067 611.236894 
L 292.51306 611.224379 
L 294.055391 610.943526 
L 295.597722 612.464303 
L 297.140054 612.719592 
L 303.309378 612.702853 
L 306.394041 613.089681 
L 309.478703 612.951283 
L 312.563365 612.673614 
L 314.105697 612.779917 
L 315.648028 613.066275 
L 317.190359 613.467561 
L 318.73269 612.854782 
L 320.275021 613.015788 
L 321.817353 612.894683 
L 323.359684 613.034242 
L 324.902015 613.336034 
L 326.444346 613.310044 
L 329.529009 613.535725 
L 331.07134 613.065269 
L 332.613671 612.997353 
L 337.240664 613.3876 
L 338.782996 613.255056 
L 340.325327 613.400269 
L 341.867658 613.746288 
L 343.409989 613.940644 
L 346.494652 613.927077 
L 348.036983 614.168444 
L 349.579314 613.973278 
L 351.121645 614.177024 
L 352.663976 614.066108 
L 354.206308 614.169486 
L 357.29097 614.062837 
L 360.375632 614.15185 
L 366.544957 614.266773 
L 368.087288 614.040828 
L 369.629619 614.274385 
L 377.341275 614.276113 
L 378.883607 614.097315 
L 381.968269 614.362511 
L 383.5106 614.155212 
L 388.137594 614.439948 
L 389.679925 614.270459 
L 397.391581 614.385732 
L 398.933912 614.414423 
L 402.018574 614.202059 
L 403.560905 614.489188 
L 405.103237 614.209364 
L 408.187899 614.425227 
L 409.73023 614.514442 
L 412.814893 614.387668 
L 415.899555 614.371848 
L 417.441886 614.407871 
L 418.984217 614.202972 
L 422.06888 614.523716 
L 423.611211 614.578932 
L 425.153542 614.452616 
L 426.695873 614.468357 
L 428.238204 614.618101 
L 432.865198 614.436014 
L 435.94986 614.606958 
L 437.492192 614.416744 
L 440.576854 614.699996 
L 442.119185 614.519994 
L 445.203848 614.525413 
L 446.746179 614.60357 
L 448.28851 614.507895 
L 449.830841 614.543484 
L 451.373172 614.348514 
L 452.915503 614.432849 
L 454.457835 614.390966 
L 457.542497 614.693262 
L 463.711822 614.512654 
L 465.254153 614.642933 
L 466.796484 614.405243 
L 468.338815 614.585883 
L 474.50814 614.673728 
L 476.050471 614.474607 
L 477.592802 614.727261 
L 479.135134 614.49517 
L 480.677465 614.724421 
L 482.219796 614.484534 
L 483.762127 614.826794 
L 485.304458 614.668399 
L 486.84679 614.749302 
L 488.389121 614.587271 
L 489.931452 614.739691 
L 491.473783 614.41496 
L 493.016114 614.574772 
L 494.558446 614.53574 
L 496.100777 614.661165 
L 497.643108 614.550467 
L 499.185439 614.713101 
L 500.72777 614.540088 
L 502.270101 614.747523 
L 503.812433 614.586444 
L 505.354764 614.624383 
L 506.897095 614.826364 
L 508.439426 614.54607 
L 509.981757 614.807203 
L 511.524089 614.756974 
L 513.06642 614.511986 
L 514.608751 614.746934 
L 516.151082 614.788823 
L 517.693413 614.641365 
L 519.235744 614.630698 
L 520.778076 614.505945 
L 522.320407 614.784366 
L 523.862738 614.528155 
L 525.405069 614.72583 
L 528.489732 614.588635 
L 530.032063 614.774595 
L 531.574394 614.803117 
L 533.116725 614.699355 
L 534.659056 614.816763 
L 539.28605 614.735483 
L 540.828381 614.548732 
L 542.370712 614.832977 
L 543.913043 614.416026 
L 546.997706 614.816186 
L 548.540037 614.935695 
L 551.624699 614.747072 
L 553.167031 614.891272 
L 556.251693 614.853129 
L 557.794024 614.95785 
L 559.336355 614.788835 
L 560.878687 614.793878 
L 562.421018 614.960181 
L 567.048011 614.714653 
L 568.590342 614.749605 
L 570.132674 614.907358 
L 573.217336 614.821989 
L 574.759667 614.936472 
L 576.301998 614.834008 
L 577.84433 614.858328 
L 579.386661 615.003475 
L 580.928992 614.89117 
L 582.471323 614.603378 
L 584.013654 614.823778 
L 585.555986 614.675673 
L 590.182979 614.842934 
L 591.72531 615.140473 
L 593.267641 614.820452 
L 594.809973 614.999541 
L 596.352304 614.679453 
L 597.894635 614.599067 
L 599.436966 614.889654 
L 600.979297 614.930492 
L 602.521629 614.673453 
L 604.06396 615.079546 
L 607.148622 614.733443 
L 610.233285 614.854147 
L 611.775616 614.665596 
L 613.317947 614.942263 
L 614.860278 614.852575 
L 616.402609 614.967399 
L 617.94494 614.952519 
L 619.487272 614.8089 
L 625.656596 614.720063 
L 627.198928 614.981025 
L 628.741259 614.950218 
L 630.28359 614.711698 
L 633.368252 615.044636 
L 634.910583 615.084689 
L 636.452915 614.921003 
L 639.537577 614.98304 
L 642.622239 614.937447 
L 645.706902 615.107578 
L 647.249233 614.697201 
L 648.791564 614.924156 
L 651.876227 615.029409 
L 653.418558 614.872806 
L 654.960889 614.872791 
L 656.50322 615.003064 
L 659.587882 614.756799 
L 661.130214 615.024587 
L 662.672545 614.972104 
L 664.214876 614.529018 
L 664.214876 614.529018 
" clip-path="url(#peee014c8cb)" style="fill: none; stroke: #d62728; stroke-width: 1.5; stroke-linecap: square"/>
   </g>
   <g id="patch_3">
    <path d="M 180 640.8 
L 180 86.4 
" style="fill: none; stroke: #000000; stroke-width: 0.8; stroke-linejoin: miter; stroke-linecap: square"/>
   </g>
   <g id="patch_4">
    <path d="M 687.272727 640.8 
L 687.272727 86.4 
" style="fill: none; stroke: #000000; stroke-width: 0.8; stroke-linejoin: miter; stroke-linecap: square"/>
   </g>
   <g id="patch_5">
    <path d="M 180 640.8 
L 687.272727 640.8 
" style="fill: none; stroke: #000000; stroke-width: 0.8; stroke-linejoin: miter; stroke-linecap: square"/>
   </g>
   <g id="patch_6">
    <path d="M 180 86.4 
L 687.272727 86.4 
" style="fill: none; stroke: #000000; stroke-width: 0.8; stroke-linejoin: miter; stroke-linecap: square"/>
   </g>
   <g id="text_13">
    <!-- Loss -->
    <g transform="translate(420.475739 80.4) scale(0.12 -0.12)">
     <defs>
      <path id="DejaVuSans-4c" d="M 628 4666 
L 1259 4666 
L 1259 531 
L 3531 531 
L 3531 0 
L 628 0 
L 628 4666 
z
" transform="scale(0.015625)"/>
      <path id="DejaVuSans-6f" d="M 1959 3097 
Q 1497 3097 1228 2736 
Q 959 2375 959 1747 
Q 959 1119 1226 758 
Q 1494 397 1959 397 
Q 2419 397 2687 759 
Q 2956 1122 2956 1747 
Q 2956 2369 2687 2733 
Q 2419 3097 1959 3097 
z
M 1959 3584 
Q 2709 3584 3137 3096 
Q 3566 2609 3566 1747 
Q 3566 888 3137 398 
Q 2709 -91 1959 -91 
Q 1206 -91 779 398 
Q 353 888 353 1747 
Q 353 2609 779 3096 
Q 1206 3584 1959 3584 
z
" transform="scale(0.015625)"/>
      <path id="DejaVuSans-73" d="M 2834 3397 
L 2834 2853 
Q 2591 2978 2328 3040 
Q 2066 3103 1784 3103 
Q 1356 3103 1142 2972 
Q 928 2841 928 2578 
Q 928 2378 1081 2264 
Q 1234 2150 1697 2047 
L 1894 2003 
Q 2506 1872 2764 1633 
Q 3022 1394 3022 966 
Q 3022 478 2636 193 
Q 2250 -91 1575 -91 
Q 1294 -91 989 -36 
Q 684 19 347 128 
L 347 722 
Q 666 556 975 473 
Q 1284 391 1588 391 
Q 1994 391 2212 530 
Q 2431 669 2431 922 
Q 2431 1156 2273 1281 
Q 2116 1406 1581 1522 
L 1381 1569 
Q 847 1681 609 1914 
Q 372 2147 372 2553 
Q 372 3047 722 3315 
Q 1072 3584 1716 3584 
Q 2034 3584 2315 3537 
Q 2597 3491 2834 3397 
z
" transform="scale(0.015625)"/>
     </defs>
     <use xlink:href="#DejaVuSans-4c"/>
     <use xlink:href="#DejaVuSans-6f" x="53.962891"/>
     <use xlink:href="#DejaVuSans-73" x="115.144531"/>
     <use xlink:href="#DejaVuSans-73" x="167.244141"/>
    </g>
   </g>
  </g>
  <g id="axes_2">
   <g id="patch_7">
    <path d="M 788.727273 640.8 
L 1296 640.8 
L 1296 86.4 
L 788.727273 86.4 
z
" style="fill: #ffffff"/>
   </g>
   <g id="matplotlib.axis_3">
    <g id="xtick_8">
     <g id="line2d_17">
      <g>
       <use xlink:href="#m6b76681c51" x="810.258216" y="640.8" style="stroke: #000000; stroke-width: 0.8"/>
      </g>
     </g>
     <g id="text_14">
      <!-- 0 -->
      <g transform="translate(807.076966 655.398438) scale(0.1 -0.1)">
       <use xlink:href="#DejaVuSans-30"/>
      </g>
     </g>
    </g>
    <g id="xtick_9">
     <g id="line2d_18">
      <g>
       <use xlink:href="#m6b76681c51" x="887.374775" y="640.8" style="stroke: #000000; stroke-width: 0.8"/>
      </g>
     </g>
     <g id="text_15">
      <!-- 5000 -->
      <g transform="translate(874.649775 655.398438) scale(0.1 -0.1)">
       <use xlink:href="#DejaVuSans-35"/>
       <use xlink:href="#DejaVuSans-30" x="63.623047"/>
       <use xlink:href="#DejaVuSans-30" x="127.246094"/>
       <use xlink:href="#DejaVuSans-30" x="190.869141"/>
      </g>
     </g>
    </g>
    <g id="xtick_10">
     <g id="line2d_19">
      <g>
       <use xlink:href="#m6b76681c51" x="964.491335" y="640.8" style="stroke: #000000; stroke-width: 0.8"/>
      </g>
     </g>
     <g id="text_16">
      <!-- 10000 -->
      <g transform="translate(948.585085 655.398438) scale(0.1 -0.1)">
       <use xlink:href="#DejaVuSans-31"/>
       <use xlink:href="#DejaVuSans-30" x="63.623047"/>
       <use xlink:href="#DejaVuSans-30" x="127.246094"/>
       <use xlink:href="#DejaVuSans-30" x="190.869141"/>
       <use xlink:href="#DejaVuSans-30" x="254.492188"/>
      </g>
     </g>
    </g>
    <g id="xtick_11">
     <g id="line2d_20">
      <g>
       <use xlink:href="#m6b76681c51" x="1041.607894" y="640.8" style="stroke: #000000; stroke-width: 0.8"/>
      </g>
     </g>
     <g id="text_17">
      <!-- 15000 -->
      <g transform="translate(1025.701644 655.398438) scale(0.1 -0.1)">
       <use xlink:href="#DejaVuSans-31"/>
       <use xlink:href="#DejaVuSans-35" x="63.623047"/>
       <use xlink:href="#DejaVuSans-30" x="127.246094"/>
       <use xlink:href="#DejaVuSans-30" x="190.869141"/>
       <use xlink:href="#DejaVuSans-30" x="254.492188"/>
      </g>
     </g>
    </g>
    <g id="xtick_12">
     <g id="line2d_21">
      <g>
       <use xlink:href="#m6b76681c51" x="1118.724453" y="640.8" style="stroke: #000000; stroke-width: 0.8"/>
      </g>
     </g>
     <g id="text_18">
      <!-- 20000 -->
      <g transform="translate(1102.818203 655.398438) scale(0.1 -0.1)">
       <use xlink:href="#DejaVuSans-32"/>
       <use xlink:href="#DejaVuSans-30" x="63.623047"/>
       <use xlink:href="#DejaVuSans-30" x="127.246094"/>
       <use xlink:href="#DejaVuSans-30" x="190.869141"/>
       <use xlink:href="#DejaVuSans-30" x="254.492188"/>
      </g>
     </g>
    </g>
    <g id="xtick_13">
     <g id="line2d_22">
      <g>
       <use xlink:href="#m6b76681c51" x="1195.841013" y="640.8" style="stroke: #000000; stroke-width: 0.8"/>
      </g>
     </g>
     <g id="text_19">
      <!-- 25000 -->
      <g transform="translate(1179.934763 655.398438) scale(0.1 -0.1)">
       <use xlink:href="#DejaVuSans-32"/>
       <use xlink:href="#DejaVuSans-35" x="63.623047"/>
       <use xlink:href="#DejaVuSans-30" x="127.246094"/>
       <use xlink:href="#DejaVuSans-30" x="190.869141"/>
       <use xlink:href="#DejaVuSans-30" x="254.492188"/>
      </g>
     </g>
    </g>
    <g id="xtick_14">
     <g id="line2d_23">
      <g>
       <use xlink:href="#m6b76681c51" x="1272.957572" y="640.8" style="stroke: #000000; stroke-width: 0.8"/>
      </g>
     </g>
     <g id="text_20">
      <!-- 30000 -->
      <g transform="translate(1257.051322 655.398438) scale(0.1 -0.1)">
       <use xlink:href="#DejaVuSans-33"/>
       <use xlink:href="#DejaVuSans-30" x="63.623047"/>
       <use xlink:href="#DejaVuSans-30" x="127.246094"/>
       <use xlink:href="#DejaVuSans-30" x="190.869141"/>
       <use xlink:href="#DejaVuSans-30" x="254.492188"/>
      </g>
     </g>
    </g>
   </g>
   <g id="matplotlib.axis_4">
    <g id="ytick_6">
     <g id="line2d_24">
      <g>
       <use xlink:href="#mcbc444c09e" x="788.727273" y="546.675923" style="stroke: #000000; stroke-width: 0.8"/>
      </g>
     </g>
     <g id="text_21">
      <!-- 0.2 -->
      <g transform="translate(765.824148 550.475142) scale(0.1 -0.1)">
       <defs>
        <path id="DejaVuSans-2e" d="M 684 794 
L 1344 794 
L 1344 0 
L 684 0 
L 684 794 
z
" transform="scale(0.015625)"/>
       </defs>
       <use xlink:href="#DejaVuSans-30"/>
       <use xlink:href="#DejaVuSans-2e" x="63.623047"/>
       <use xlink:href="#DejaVuSans-32" x="95.410156"/>
      </g>
     </g>
    </g>
    <g id="ytick_7">
     <g id="line2d_25">
      <g>
       <use xlink:href="#mcbc444c09e" x="788.727273" y="429.657116" style="stroke: #000000; stroke-width: 0.8"/>
      </g>
     </g>
     <g id="text_22">
      <!-- 0.3 -->
      <g transform="translate(765.824148 433.456335) scale(0.1 -0.1)">
       <use xlink:href="#DejaVuSans-30"/>
       <use xlink:href="#DejaVuSans-2e" x="63.623047"/>
       <use xlink:href="#DejaVuSans-33" x="95.410156"/>
      </g>
     </g>
    </g>
    <g id="ytick_8">
     <g id="line2d_26">
      <g>
       <use xlink:href="#mcbc444c09e" x="788.727273" y="312.63831" style="stroke: #000000; stroke-width: 0.8"/>
      </g>
     </g>
     <g id="text_23">
      <!-- 0.4 -->
      <g transform="translate(765.824148 316.437528) scale(0.1 -0.1)">
       <defs>
        <path id="DejaVuSans-34" d="M 2419 4116 
L 825 1625 
L 2419 1625 
L 2419 4116 
z
M 2253 4666 
L 3047 4666 
L 3047 1625 
L 3713 1625 
L 3713 1100 
L 3047 1100 
L 3047 0 
L 2419 0 
L 2419 1100 
L 313 1100 
L 313 1709 
L 2253 4666 
z
" transform="scale(0.015625)"/>
       </defs>
       <use xlink:href="#DejaVuSans-30"/>
       <use xlink:href="#DejaVuSans-2e" x="63.623047"/>
       <use xlink:href="#DejaVuSans-34" x="95.410156"/>
      </g>
     </g>
    </g>
    <g id="ytick_9">
     <g id="line2d_27">
      <g>
       <use xlink:href="#mcbc444c09e" x="788.727273" y="195.619503" style="stroke: #000000; stroke-width: 0.8"/>
      </g>
     </g>
     <g id="text_24">
      <!-- 0.5 -->
      <g transform="translate(765.824148 199.418722) scale(0.1 -0.1)">
       <use xlink:href="#DejaVuSans-30"/>
       <use xlink:href="#DejaVuSans-2e" x="63.623047"/>
       <use xlink:href="#DejaVuSans-35" x="95.410156"/>
      </g>
     </g>
    </g>
   </g>
   <g id="line2d_28">
    <path d="M 811.785124 508.995867 
L 813.327455 431.29538 
L 814.869786 435.157 
L 816.412118 469.443511 
L 817.954449 441.124959 
L 819.49678 462.071326 
L 821.039111 420.763687 
L 822.581442 414.678709 
L 824.123773 400.285396 
L 825.666105 422.870026 
L 827.208436 388.232459 
L 828.750767 421.348781 
L 830.293098 460.199025 
L 831.835429 412.338333 
L 833.377761 448.380125 
L 834.920092 430.827304 
L 836.462423 507.70866 
L 838.004754 408.71075 
L 839.547085 396.189738 
L 841.089417 421.114743 
L 842.631748 420.295612 
L 844.174079 426.146552 
L 845.71641 395.487625 
L 847.258741 401.923659 
L 848.801072 421.114743 
L 850.343404 444.401486 
L 851.885735 374.307221 
L 854.970397 349.733271 
L 856.512728 340.839842 
L 858.05506 348.212027 
L 859.597391 339.08456 
L 861.139722 349.499234 
L 862.682053 356.7544 
L 865.766715 289.702624 
L 867.309047 285.723984 
L 868.851378 305.7342 
L 870.393709 264.660599 
L 871.93604 275.660367 
L 873.478371 283.617646 
L 875.020703 240.437706 
L 876.563034 269.224332 
L 878.105365 260.447922 
L 879.647696 238.565405 
L 881.190027 239.03348 
L 882.732359 218.204133 
L 884.27469 229.086882 
L 885.817021 233.416578 
L 887.359352 231.895333 
L 888.901683 207.67244 
L 890.444014 231.076202 
L 891.986346 220.076434 
L 893.528677 207.789459 
L 895.071008 216.448851 
L 896.613339 184.970792 
L 898.15567 213.172324 
L 899.698002 203.108707 
L 901.240333 211.183004 
L 902.782664 183.683585 
L 904.324995 165.662689 
L 905.867326 168.822196 
L 907.409658 168.822196 
L 908.951989 163.439331 
L 910.49432 170.46046 
L 912.036651 171.630648 
L 913.578982 180.407058 
L 915.121313 156.301184 
L 916.663645 157.822429 
L 918.205976 160.279824 
L 919.748307 167.769027 
L 921.290638 163.322313 
L 922.832969 166.013745 
L 924.375301 174.790156 
L 925.917632 160.513861 
L 927.459963 158.524541 
L 929.002294 158.64156 
L 930.544625 157.354353 
L 932.086957 166.598839 
L 933.629288 160.981936 
L 935.171619 166.247783 
L 936.71395 152.439564 
L 938.256281 154.194846 
L 939.798612 159.226654 
L 941.340944 157.822429 
L 942.883275 149.397075 
L 944.425606 166.598839 
L 945.967937 160.045786 
L 947.510268 152.205526 
L 949.0526 156.418203 
L 950.594931 142.96104 
L 952.137262 136.173949 
L 953.679593 139.333457 
L 955.221924 139.801532 
L 956.764256 130.674065 
L 958.306587 129.503877 
L 959.848918 136.876062 
L 961.391249 138.397307 
L 962.93358 141.088739 
L 964.475911 139.684514 
L 966.018243 136.056931 
L 967.560574 135.354818 
L 969.102905 131.25916 
L 970.645236 130.908103 
L 972.187567 135.822893 
L 973.729899 135.822893 
L 975.27223 126.578407 
L 976.814561 126.34437 
L 978.356892 140.503645 
L 981.441554 130.323009 
L 982.983886 127.982633 
L 984.526217 132.429348 
L 986.068548 131.961272 
L 987.610879 131.727235 
L 989.15321 127.397539 
L 990.695542 128.450708 
L 992.237873 127.046482 
L 993.780204 142.258927 
L 995.322535 131.727235 
L 996.864866 133.014442 
L 998.407198 137.695194 
L 999.949529 128.099652 
L 1001.49186 129.737915 
L 1003.034191 137.1101 
L 1006.118853 127.865614 
L 1007.661185 130.908103 
L 1009.203516 129.26984 
L 1010.745847 129.854934 
L 1012.288178 145.301416 
L 1013.830509 131.493197 
L 1015.372841 136.407987 
L 1018.457503 126.227351 
L 1019.999834 130.791084 
L 1021.542165 134.067611 
L 1023.084497 125.174182 
L 1024.626828 125.525238 
L 1026.169159 129.737915 
L 1029.253821 136.056931 
L 1030.796152 133.014442 
L 1032.338484 135.822893 
L 1033.880815 128.684746 
L 1035.423146 134.886743 
L 1036.965477 128.567727 
L 1038.507808 130.674065 
L 1040.05014 132.078291 
L 1041.592471 137.461156 
L 1043.134802 133.014442 
L 1044.677133 129.971953 
L 1046.219464 132.780404 
L 1047.761796 129.035802 
L 1049.304127 134.418667 
L 1050.846458 126.461388 
L 1052.388789 136.056931 
L 1053.93112 135.939912 
L 1055.473451 127.163501 
L 1057.015783 132.312329 
L 1058.558114 140.737683 
L 1060.100445 133.716554 
L 1061.642776 120.610448 
L 1063.185107 130.20599 
L 1064.727439 131.610216 
L 1066.26977 126.578407 
L 1067.812101 124.706106 
L 1069.354432 129.620896 
L 1070.896763 127.748595 
L 1072.439095 128.333689 
L 1073.981426 132.19531 
L 1075.523757 126.578407 
L 1077.066088 126.929464 
L 1078.608419 128.684746 
L 1080.15075 123.886975 
L 1081.693082 139.801532 
L 1083.235413 135.237799 
L 1084.777744 127.748595 
L 1086.320075 123.886975 
L 1087.862406 128.216671 
L 1089.404738 133.248479 
L 1090.947069 127.397539 
L 1092.4894 132.19531 
L 1094.031731 133.13146 
L 1095.574062 114.993545 
L 1097.116393 135.939912 
L 1098.658725 131.610216 
L 1100.201056 128.684746 
L 1101.743387 124.823125 
L 1103.285718 125.2912 
L 1104.828049 119.44026 
L 1106.370381 127.163501 
L 1107.912712 123.769956 
L 1109.455043 121.078523 
L 1110.997374 135.237799 
L 1112.539705 126.227351 
L 1114.082037 128.567727 
L 1115.624368 128.450708 
L 1117.166699 129.26984 
L 1118.70903 121.663617 
L 1120.251361 125.174182 
L 1121.793692 124.238031 
L 1123.336024 129.503877 
L 1124.878355 120.142373 
L 1126.420686 122.950824 
L 1127.963017 129.854934 
L 1129.505348 128.333689 
L 1131.04768 120.142373 
L 1132.590011 125.759276 
L 1134.132342 121.663617 
L 1135.674673 126.34437 
L 1137.217004 121.42958 
L 1138.759336 124.472069 
L 1140.301667 124.823125 
L 1141.843998 124.35505 
L 1143.386329 129.386859 
L 1144.92866 119.557279 
L 1146.470991 124.706106 
L 1148.013323 124.823125 
L 1149.555654 116.51479 
L 1151.097985 128.333689 
L 1152.640316 118.270072 
L 1154.182647 127.631577 
L 1155.724979 119.557279 
L 1157.26731 116.748827 
L 1158.809641 124.003993 
L 1160.351972 126.34437 
L 1161.894303 125.174182 
L 1163.436635 120.025354 
L 1164.978966 143.663153 
L 1166.521297 123.652937 
L 1168.063628 121.078523 
L 1169.605959 123.184862 
L 1171.14829 118.036034 
L 1172.690622 132.078291 
L 1174.232953 115.344602 
L 1175.775284 128.099652 
L 1177.317615 119.557279 
L 1178.859946 120.142373 
L 1180.402278 123.301881 
L 1181.944609 119.674298 
L 1183.48694 126.34437 
L 1185.029271 125.759276 
L 1186.571602 135.939912 
L 1188.113933 122.599768 
L 1189.656265 130.557047 
L 1191.198596 115.461621 
L 1192.740927 123.535918 
L 1194.283258 122.950824 
L 1195.825589 120.610448 
L 1197.367921 120.142373 
L 1198.910252 116.046715 
L 1200.452583 118.153053 
L 1201.994914 127.865614 
L 1203.537245 130.791084 
L 1205.079577 127.865614 
L 1206.621908 117.684978 
L 1208.164239 122.131693 
L 1209.70657 124.35505 
L 1211.248901 121.897655 
L 1212.791232 127.514558 
L 1214.333564 125.642257 
L 1215.875895 118.972185 
L 1217.418226 120.727467 
L 1218.960557 114.759508 
L 1220.502888 121.897655 
L 1222.04522 127.28052 
L 1223.587551 124.003993 
L 1225.129882 126.929464 
L 1226.672213 114.759508 
L 1228.214544 118.738147 
L 1229.756876 126.227351 
L 1231.299207 124.35505 
L 1232.841538 126.695426 
L 1234.383869 127.163501 
L 1237.468531 117.45094 
L 1239.010863 123.184862 
L 1240.553194 131.961272 
L 1242.095525 121.897655 
L 1243.637856 120.025354 
L 1245.180187 126.695426 
L 1246.722519 122.716787 
L 1248.26485 134.886743 
L 1249.807181 111.6 
L 1251.349512 119.089204 
L 1252.891843 130.557047 
L 1254.434175 123.067843 
L 1255.976506 122.014674 
L 1257.518837 129.620896 
L 1259.061168 123.184862 
L 1260.603499 117.45094 
L 1262.14583 125.408219 
L 1263.688162 118.50411 
L 1265.230493 121.780636 
L 1266.772824 122.950824 
L 1268.315155 129.152821 
L 1269.857486 123.184862 
L 1271.399818 123.418899 
L 1272.942149 118.621128 
L 1272.942149 118.621128 
" clip-path="url(#p2b3261dfc8)" style="fill: none; stroke: #1f77b4; stroke-width: 1.5; stroke-linecap: square"/>
   </g>
   <g id="line2d_29">
    <path d="M 811.785124 516.836127 
L 813.327455 546.207848 
L 814.869786 551.82475 
L 816.412118 543.750453 
L 817.954449 548.080149 
L 819.49678 570.898816 
L 821.039111 559.430973 
L 822.581442 574.292361 
L 824.123773 546.090829 
L 825.666105 569.377571 
L 827.208436 615.6 
L 828.750767 533.569817 
L 830.293098 553.463014 
L 831.835429 516.60209 
L 833.377761 483.25173 
L 834.920092 505.953378 
L 836.462423 466.401022 
L 838.004754 493.432366 
L 839.547085 481.028372 
L 841.089417 450.954539 
L 842.631748 435.976132 
L 844.174079 453.645972 
L 845.71641 438.433527 
L 847.258741 416.199954 
L 848.801072 404.966148 
L 850.343404 377.115672 
L 851.885735 385.775064 
L 853.428066 388.466496 
L 854.970397 362.722359 
L 856.512728 374.658277 
L 858.05506 329.957093 
L 859.597391 323.755096 
L 861.139722 331.2443 
L 862.682053 320.010495 
L 864.224384 298.596053 
L 865.766715 315.680799 
L 867.309047 288.181379 
L 868.851378 279.756025 
L 870.393709 291.808962 
L 871.93604 284.20274 
L 873.478371 289.702624 
L 876.563034 267.235013 
L 878.105365 271.564709 
L 879.647696 278.819875 
L 881.190027 256.352264 
L 882.732359 263.373392 
L 884.27469 255.182076 
L 885.817021 249.565173 
L 887.359352 245.469515 
L 888.901683 241.958951 
L 890.444014 239.384537 
L 891.986346 239.618574 
L 893.528677 240.437706 
L 895.071008 232.363408 
L 896.613339 257.054377 
L 898.15567 228.501788 
L 899.698002 234.586766 
L 901.240333 222.41681 
L 902.782664 232.714465 
L 904.324995 210.59791 
L 905.867326 202.75765 
L 907.409658 218.555189 
L 908.951989 214.927606 
L 910.49432 208.491572 
L 912.036651 204.74697 
L 913.578982 198.427954 
L 915.121313 205.098026 
L 916.663645 201.470443 
L 918.205976 200.885349 
L 919.748307 195.619503 
L 921.290638 197.725842 
L 922.832969 198.661992 
L 925.917632 204.863989 
L 929.002294 191.640864 
L 930.544625 190.0026 
L 932.086957 202.75765 
L 933.629288 199.013049 
L 935.171619 193.98124 
L 936.71395 191.172788 
L 938.256281 196.438635 
L 939.798612 196.789691 
L 941.340944 198.89603 
L 942.883275 203.81082 
L 944.425606 183.332528 
L 945.967937 193.98124 
L 947.510268 191.289807 
L 949.0526 189.183469 
L 950.594931 178.183701 
L 952.137262 180.056002 
L 953.679593 176.662456 
L 955.221924 174.556118 
L 956.764256 176.194381 
L 958.306587 170.577479 
L 959.848918 167.53499 
L 961.391249 169.173253 
L 962.93358 172.098723 
L 964.475911 172.449779 
L 966.018243 168.705178 
L 967.560574 169.173253 
L 969.102905 164.843557 
L 970.645236 166.364801 
L 972.187567 172.215742 
L 973.729899 173.268911 
L 975.27223 172.566798 
L 976.814561 171.045554 
L 978.356892 172.449779 
L 979.899223 169.524309 
L 981.441554 167.53499 
L 982.983886 171.513629 
L 984.526217 166.48182 
L 986.068548 167.886046 
L 987.610879 171.513629 
L 989.15321 167.066914 
L 990.695542 167.886046 
L 992.237873 169.992384 
L 993.780204 175.960344 
L 995.322535 162.6202 
L 998.407198 165.779707 
L 999.949529 167.066914 
L 1001.49186 166.949896 
L 1003.034191 170.928535 
L 1004.576522 170.928535 
L 1006.118853 163.790388 
L 1009.203516 163.322313 
L 1010.745847 167.652008 
L 1012.288178 159.69473 
L 1013.830509 170.928535 
L 1015.372841 161.918087 
L 1016.915172 162.854237 
L 1018.457503 163.088275 
L 1019.999834 170.577479 
L 1021.542165 161.332993 
L 1023.084497 162.269143 
L 1024.626828 162.854237 
L 1026.169159 158.992617 
L 1027.71149 163.907407 
L 1029.253821 160.279824 
L 1030.796152 160.279824 
L 1032.338484 162.269143 
L 1033.880815 162.035106 
L 1035.423146 163.55635 
L 1036.965477 164.843557 
L 1038.507808 166.598839 
L 1040.05014 167.769027 
L 1041.592471 166.832877 
L 1043.134802 155.013977 
L 1044.677133 165.779707 
L 1046.219464 153.492733 
L 1047.761796 163.088275 
L 1049.304127 162.854237 
L 1050.846458 158.64156 
L 1053.93112 161.801068 
L 1055.473451 166.247783 
L 1057.015783 160.279824 
L 1058.558114 162.152124 
L 1060.100445 154.896958 
L 1061.642776 164.141444 
L 1063.185107 162.503181 
L 1064.727439 157.70541 
L 1066.26977 152.439564 
L 1067.812101 160.279824 
L 1069.354432 162.6202 
L 1070.896763 153.024658 
L 1072.439095 156.301184 
L 1073.981426 158.64156 
L 1075.523757 160.045786 
L 1077.066088 158.758579 
L 1078.608419 154.896958 
L 1080.15075 156.769259 
L 1081.693082 160.513861 
L 1083.235413 166.832877 
L 1084.777744 162.152124 
L 1086.320075 164.141444 
L 1087.862406 158.64156 
L 1089.404738 173.854005 
L 1090.947069 161.098955 
L 1092.4894 160.396842 
L 1094.031731 162.854237 
L 1095.574062 155.248015 
L 1097.116393 164.609519 
L 1098.658725 165.662689 
L 1100.201056 155.365034 
L 1101.743387 164.609519 
L 1103.285718 157.120316 
L 1104.828049 152.79062 
L 1106.370381 147.524774 
L 1107.912712 156.535222 
L 1109.455043 157.822429 
L 1110.997374 150.099187 
L 1112.539705 151.620432 
L 1114.082037 157.354353 
L 1115.624368 156.652241 
L 1117.166699 155.013977 
L 1118.70903 159.460692 
L 1120.251361 165.779707 
L 1121.793692 158.758579 
L 1123.336024 157.003297 
L 1124.878355 157.471372 
L 1126.420686 160.63088 
L 1127.963017 155.833109 
L 1129.505348 155.130996 
L 1131.04768 152.322545 
L 1132.590011 155.833109 
L 1134.132342 153.492733 
L 1135.674673 152.322545 
L 1137.217004 153.375714 
L 1138.759336 159.811748 
L 1140.301667 155.833109 
L 1141.843998 158.290504 
L 1143.386329 153.960808 
L 1144.92866 152.439564 
L 1146.470991 164.609519 
L 1148.013323 157.354353 
L 1149.555654 156.184165 
L 1151.097985 154.545902 
L 1152.640316 159.577711 
L 1154.182647 166.247783 
L 1155.724979 164.609519 
L 1157.26731 159.109635 
L 1158.809641 158.524541 
L 1160.351972 153.024658 
L 1161.894303 155.013977 
L 1163.436635 156.301184 
L 1166.521297 152.556582 
L 1168.063628 153.141676 
L 1169.605959 158.173485 
L 1171.14829 149.046018 
L 1172.690622 158.875598 
L 1174.232953 154.077827 
L 1175.775284 161.332993 
L 1177.317615 156.652241 
L 1178.859946 159.109635 
L 1180.402278 163.322313 
L 1181.944609 160.162805 
L 1183.48694 154.662921 
L 1185.029271 150.684281 
L 1186.571602 156.769259 
L 1188.113933 156.652241 
L 1189.656265 157.003297 
L 1191.198596 152.322545 
L 1192.740927 146.237567 
L 1194.283258 152.673601 
L 1195.825589 154.545902 
L 1197.367921 152.907639 
L 1198.910252 158.290504 
L 1200.452583 155.950128 
L 1201.994914 149.982169 
L 1203.537245 151.386394 
L 1205.079577 149.046018 
L 1206.621908 160.981936 
L 1208.164239 154.77994 
L 1209.70657 147.992849 
L 1211.248901 160.981936 
L 1212.791232 155.950128 
L 1214.333564 153.375714 
L 1215.875895 152.088507 
L 1217.418226 156.184165 
L 1218.960557 157.120316 
L 1220.502888 151.035338 
L 1222.04522 158.992617 
L 1223.587551 160.045786 
L 1225.129882 158.524541 
L 1226.672213 157.354353 
L 1228.214544 153.141676 
L 1229.756876 158.992617 
L 1231.299207 163.55635 
L 1232.841538 150.333225 
L 1234.383869 148.226886 
L 1235.9262 151.854469 
L 1237.468531 158.64156 
L 1239.010863 158.758579 
L 1240.553194 153.72677 
L 1242.095525 154.896958 
L 1243.637856 161.918087 
L 1245.180187 148.460924 
L 1246.722519 150.216206 
L 1248.26485 155.71609 
L 1249.807181 150.684281 
L 1251.349512 151.386394 
L 1252.891843 154.077827 
L 1254.434175 154.077827 
L 1255.976506 155.130996 
L 1257.518837 149.046018 
L 1259.061168 150.567263 
L 1260.603499 151.386394 
L 1262.14583 149.514093 
L 1263.688162 149.046018 
L 1265.230493 152.205526 
L 1266.772824 145.88651 
L 1268.315155 146.003529 
L 1269.857486 157.822429 
L 1271.399818 152.439564 
L 1272.942149 147.87583 
L 1272.942149 147.87583 
" clip-path="url(#p2b3261dfc8)" style="fill: none; stroke: #ff7f0e; stroke-width: 1.5; stroke-linecap: square"/>
   </g>
   <g id="line2d_30">
    <path d="M 811.785124 471.900906 
L 813.327455 464.060645 
L 814.869786 383.434688 
L 816.412118 377.817785 
L 817.954449 382.030462 
L 819.49678 418.306292 
L 821.039111 413.391502 
L 822.581442 481.964523 
L 824.123773 398.062039 
L 825.666105 431.880474 
L 827.208436 355.584212 
L 828.750767 487.698444 
L 830.293098 394.785512 
L 831.835429 388.11544 
L 833.377761 411.285164 
L 834.920092 406.136336 
L 836.462423 408.242675 
L 838.004754 384.838913 
L 839.547085 364.945716 
L 841.089417 375.828465 
L 842.631748 367.637149 
L 844.174079 493.198328 
L 845.71641 452.475784 
L 847.258741 366.349942 
L 848.801072 398.413095 
L 850.343404 406.955468 
L 851.885735 358.860738 
L 853.428066 351.488554 
L 854.970397 371.264732 
L 856.512728 362.254284 
L 858.05506 342.595124 
L 859.597391 373.956164 
L 861.139722 322.935965 
L 862.682053 372.317901 
L 864.224384 343.99935 
L 865.766715 279.521987 
L 867.309047 375.828465 
L 868.851378 274.841235 
L 870.393709 309.829858 
L 871.93604 295.787602 
L 873.478371 287.947342 
L 875.020703 320.829626 
L 876.563034 290.05368 
L 878.105365 291.691943 
L 879.647696 217.267982 
L 881.190027 261.501091 
L 882.732359 223.118923 
L 884.27469 218.204133 
L 885.817021 237.863292 
L 887.359352 223.001904 
L 888.901683 199.481124 
L 890.444014 224.055073 
L 891.986346 203.81082 
L 893.528677 213.523381 
L 895.071008 218.672208 
L 896.613339 193.279127 
L 898.15567 212.119155 
L 899.698002 223.118923 
L 901.240333 219.608358 
L 902.782664 191.99192 
L 904.324995 170.109403 
L 905.867326 159.343673 
L 907.409658 166.48182 
L 908.951989 160.513861 
L 910.49432 182.981472 
L 912.036651 149.163037 
L 913.578982 150.684281 
L 916.663645 170.577479 
L 918.205976 162.737218 
L 919.748307 163.790388 
L 921.290638 150.333225 
L 922.832969 160.162805 
L 924.375301 153.258695 
L 925.917632 139.918551 
L 927.459963 144.014209 
L 929.002294 153.258695 
L 930.544625 164.258463 
L 932.086957 148.109868 
L 933.629288 159.811748 
L 935.171619 155.365034 
L 936.71395 154.77994 
L 938.256281 160.747899 
L 939.798612 147.641792 
L 941.340944 152.322545 
L 942.883275 153.960808 
L 944.425606 148.109868 
L 945.967937 164.141444 
L 947.510268 148.109868 
L 949.0526 140.503645 
L 950.594931 140.269608 
L 952.137262 133.833573 
L 953.679593 131.25916 
L 955.221924 125.408219 
L 956.764256 130.323009 
L 958.306587 128.801765 
L 959.848918 132.19531 
L 961.391249 126.695426 
L 962.93358 128.099652 
L 964.475911 133.716554 
L 966.018243 131.142141 
L 967.560574 126.929464 
L 969.102905 129.737915 
L 970.645236 130.323009 
L 972.187567 129.26984 
L 973.729899 131.610216 
L 975.27223 139.918551 
L 976.814561 130.791084 
L 978.356892 133.833573 
L 979.899223 129.035802 
L 981.441554 129.26984 
L 982.983886 129.854934 
L 984.526217 133.365498 
L 986.068548 127.631577 
L 987.610879 133.950592 
L 989.15321 124.823125 
L 990.695542 130.20599 
L 992.237873 128.684746 
L 993.780204 127.748595 
L 995.322535 123.535918 
L 996.864866 131.961272 
L 998.407198 141.205758 
L 999.949529 125.993313 
L 1001.49186 125.057163 
L 1003.034191 128.918783 
L 1004.576522 127.748595 
L 1006.118853 123.535918 
L 1007.661185 125.2912 
L 1009.203516 131.610216 
L 1010.745847 128.567727 
L 1012.288178 131.844254 
L 1013.830509 124.472069 
L 1015.372841 127.28052 
L 1016.915172 124.238031 
L 1018.457503 129.152821 
L 1019.999834 124.823125 
L 1021.542165 131.142141 
L 1023.084497 129.152821 
L 1024.626828 129.26984 
L 1026.169159 127.631577 
L 1027.71149 128.567727 
L 1029.253821 126.578407 
L 1030.796152 122.248711 
L 1032.338484 130.557047 
L 1033.880815 135.939912 
L 1035.423146 129.386859 
L 1036.965477 128.216671 
L 1038.507808 122.014674 
L 1040.05014 127.748595 
L 1041.592471 125.993313 
L 1043.134802 133.365498 
L 1044.677133 122.014674 
L 1046.219464 122.599768 
L 1047.761796 125.525238 
L 1049.304127 123.184862 
L 1050.846458 130.908103 
L 1052.388789 126.929464 
L 1053.93112 126.929464 
L 1055.473451 130.557047 
L 1057.015783 130.908103 
L 1058.558114 121.078523 
L 1060.100445 125.057163 
L 1061.642776 127.982633 
L 1063.185107 128.567727 
L 1064.727439 123.301881 
L 1066.26977 131.493197 
L 1067.812101 125.057163 
L 1069.354432 122.014674 
L 1070.896763 135.003761 
L 1072.439095 128.216671 
L 1073.981426 131.142141 
L 1075.523757 119.206222 
L 1077.066088 130.791084 
L 1078.608419 126.812445 
L 1080.15075 121.312561 
L 1081.693082 126.812445 
L 1083.235413 124.589088 
L 1084.777744 124.589088 
L 1086.320075 127.046482 
L 1087.862406 124.472069 
L 1089.404738 127.514558 
L 1090.947069 113.004226 
L 1092.4894 126.812445 
L 1094.031731 120.610448 
L 1095.574062 119.674298 
L 1097.116393 116.163733 
L 1098.658725 117.216903 
L 1100.201056 123.067843 
L 1101.743387 132.546366 
L 1103.285718 120.493429 
L 1104.828049 129.26984 
L 1106.370381 129.386859 
L 1107.912712 122.833805 
L 1109.455043 138.514326 
L 1110.997374 125.408219 
L 1112.539705 118.972185 
L 1114.082037 125.057163 
L 1115.624368 127.865614 
L 1117.166699 123.652937 
L 1118.70903 119.791316 
L 1120.251361 121.780636 
L 1121.793692 117.216903 
L 1123.336024 127.748595 
L 1124.878355 111.951056 
L 1126.420686 120.844486 
L 1127.963017 116.631809 
L 1129.505348 117.45094 
L 1131.04768 123.301881 
L 1132.590011 118.621128 
L 1134.132342 119.674298 
L 1135.674673 126.695426 
L 1137.217004 131.142141 
L 1138.759336 121.897655 
L 1140.301667 122.716787 
L 1141.843998 125.057163 
L 1143.386329 125.642257 
L 1144.92866 128.216671 
L 1146.470991 139.567495 
L 1148.013323 128.099652 
L 1149.555654 120.259392 
L 1151.097985 135.003761 
L 1152.640316 126.929464 
L 1154.182647 123.535918 
L 1155.724979 126.110332 
L 1157.26731 125.876294 
L 1158.809641 118.036034 
L 1160.351972 125.759276 
L 1161.894303 124.589088 
L 1163.436635 120.142373 
L 1164.978966 124.823125 
L 1168.063628 117.216903 
L 1169.605959 111.6 
L 1171.14829 117.216903 
L 1172.690622 120.493429 
L 1174.232953 125.525238 
L 1175.775284 113.355282 
L 1177.317615 115.110564 
L 1178.859946 122.36573 
L 1180.402278 124.706106 
L 1181.944609 118.270072 
L 1183.48694 118.270072 
L 1185.029271 114.408451 
L 1186.571602 113.940376 
L 1188.113933 116.51479 
L 1189.656265 125.057163 
L 1191.198596 118.738147 
L 1192.740927 123.652937 
L 1194.283258 117.216903 
L 1195.825589 120.142373 
L 1197.367921 117.567959 
L 1200.452583 120.727467 
L 1201.994914 121.897655 
L 1203.537245 116.046715 
L 1205.079577 114.408451 
L 1206.621908 127.748595 
L 1208.164239 121.195542 
L 1209.70657 120.727467 
L 1211.248901 119.206222 
L 1212.791232 117.216903 
L 1214.333564 115.929696 
L 1215.875895 119.674298 
L 1217.418226 129.854934 
L 1218.960557 117.45094 
L 1220.502888 122.599768 
L 1222.04522 120.259392 
L 1223.587551 122.950824 
L 1225.129882 117.684978 
L 1226.672213 114.52547 
L 1228.214544 121.078523 
L 1229.756876 117.45094 
L 1231.299207 122.716787 
L 1232.841538 128.450708 
L 1234.383869 118.855166 
L 1235.9262 121.780636 
L 1237.468531 116.51479 
L 1239.010863 124.823125 
L 1240.553194 113.238263 
L 1242.095525 123.769956 
L 1243.637856 119.44026 
L 1245.180187 113.58932 
L 1246.722519 129.26984 
L 1248.26485 126.812445 
L 1249.807181 119.908335 
L 1251.349512 118.387091 
L 1252.891843 115.461621 
L 1254.434175 116.51479 
L 1255.976506 121.897655 
L 1257.518837 122.716787 
L 1259.061168 117.45094 
L 1260.603499 116.397771 
L 1262.14583 123.535918 
L 1263.688162 114.408451 
L 1265.230493 114.759508 
L 1266.772824 116.046715 
L 1268.315155 114.993545 
L 1269.857486 114.291433 
L 1272.942149 126.34437 
L 1272.942149 126.34437 
" clip-path="url(#p2b3261dfc8)" style="fill: none; stroke: #2ca02c; stroke-width: 1.5; stroke-linecap: square"/>
   </g>
   <g id="line2d_31">
    <path d="M 811.785124 503.144927 
L 813.327455 466.986116 
L 814.869786 488.400557 
L 816.412118 516.485071 
L 817.954449 519.995635 
L 819.49678 490.974971 
L 821.039111 549.250337 
L 824.123773 467.688228 
L 825.666105 477.049733 
L 827.208436 496.240817 
L 828.750767 481.028372 
L 830.293098 500.219457 
L 831.835429 511.804319 
L 833.377761 474.592338 
L 834.920092 515.314883 
L 836.462423 510.283074 
L 838.004754 518.942466 
L 839.547085 436.912282 
L 841.089417 459.379893 
L 842.631748 427.433759 
L 844.174079 431.763455 
L 845.71641 453.294915 
L 847.258741 436.444207 
L 848.801072 396.423775 
L 850.343404 420.412631 
L 851.885735 397.359926 
L 853.428066 396.774832 
L 854.970397 352.307685 
L 856.512728 362.371303 
L 858.05506 336.861203 
L 859.597391 324.808266 
L 861.139722 304.915068 
L 862.682053 305.968238 
L 864.224384 299.064128 
L 865.766715 302.574692 
L 867.309047 296.840771 
L 868.851378 285.489947 
L 870.393709 270.160483 
L 871.93604 280.926213 
L 873.478371 269.224332 
L 875.020703 266.181844 
L 876.563034 255.884189 
L 878.105365 242.661063 
L 879.647696 253.075737 
L 881.190027 250.501323 
L 882.732359 247.341816 
L 884.27469 237.629255 
L 885.817021 227.097562 
L 887.359352 232.24639 
L 888.901683 216.214813 
L 890.444014 222.182772 
L 891.986346 216.448851 
L 893.528677 228.852844 
L 895.071008 218.321152 
L 896.613339 224.523148 
L 898.15567 221.480659 
L 899.698002 233.416578 
L 901.240333 219.959415 
L 902.782664 230.491107 
L 904.324995 197.023729 
L 905.867326 184.619735 
L 907.409658 186.960111 
L 908.951989 185.555886 
L 910.49432 182.396378 
L 912.036651 188.832412 
L 913.578982 176.077362 
L 915.121313 176.779475 
L 916.663645 183.098491 
L 918.205976 176.3114 
L 919.748307 181.811284 
L 921.290638 190.236638 
L 922.832969 180.173021 
L 924.375301 179.119851 
L 925.917632 169.875366 
L 927.459963 183.21551 
L 929.002294 178.183701 
L 930.544625 178.30072 
L 932.086957 174.088043 
L 933.629288 167.417971 
L 935.171619 173.502949 
L 936.71395 167.769027 
L 938.256281 162.971256 
L 939.798612 174.088043 
L 941.340944 184.385698 
L 942.883275 176.077362 
L 944.425606 171.279591 
L 945.967937 163.088275 
L 947.510268 172.800836 
L 949.0526 170.577479 
L 950.594931 161.450012 
L 952.137262 151.269375 
L 953.679593 153.960808 
L 955.221924 154.077827 
L 956.764256 151.269375 
L 958.306587 154.428883 
L 959.848918 147.87583 
L 961.391249 151.503413 
L 964.475911 148.226886 
L 966.018243 152.673601 
L 967.560574 148.81198 
L 969.102905 148.109868 
L 970.645236 149.748131 
L 972.187567 154.077827 
L 973.729899 152.79062 
L 975.27223 148.928999 
L 976.814561 151.854469 
L 978.356892 146.003529 
L 979.899223 145.652473 
L 981.441554 153.024658 
L 982.983886 153.024658 
L 984.526217 145.535454 
L 986.068548 147.056698 
L 987.610879 151.854469 
L 989.15321 148.577943 
L 990.695542 142.141909 
L 993.780204 154.896958 
L 995.322535 144.482285 
L 996.864866 143.546134 
L 998.407198 146.93968 
L 999.949529 145.418435 
L 1001.49186 146.471604 
L 1003.034191 149.280056 
L 1004.576522 143.078059 
L 1006.118853 144.833341 
L 1007.661185 138.982401 
L 1010.745847 151.386394 
L 1012.288178 142.609984 
L 1013.830509 149.514093 
L 1015.372841 143.663153 
L 1016.915172 144.131228 
L 1018.457503 147.992849 
L 1019.999834 141.556814 
L 1021.542165 148.577943 
L 1023.084497 144.014209 
L 1024.626828 150.918319 
L 1026.169159 142.258927 
L 1027.71149 146.471604 
L 1029.253821 149.397075 
L 1030.796152 141.556814 
L 1032.338484 138.982401 
L 1033.880815 142.609984 
L 1035.423146 139.333457 
L 1036.965477 134.769724 
L 1038.507808 143.780172 
L 1040.05014 145.184397 
L 1041.592471 146.354586 
L 1043.134802 146.822661 
L 1044.677133 142.02489 
L 1046.219464 144.131228 
L 1047.761796 144.833341 
L 1049.304127 137.461156 
L 1050.846458 144.833341 
L 1052.388789 144.014209 
L 1053.93112 142.375946 
L 1055.473451 139.450476 
L 1057.015783 144.716322 
L 1058.558114 138.865382 
L 1060.100445 146.120548 
L 1061.642776 143.429115 
L 1063.185107 145.418435 
L 1064.727439 138.865382 
L 1066.26977 140.620664 
L 1067.812101 139.684514 
L 1069.354432 143.195078 
L 1070.896763 136.993081 
L 1072.439095 147.524774 
L 1073.981426 139.801532 
L 1075.523757 142.375946 
L 1077.066088 139.333457 
L 1078.608419 144.365266 
L 1080.15075 134.769724 
L 1081.693082 138.748363 
L 1083.235413 139.567495 
L 1084.777744 138.163269 
L 1086.320075 137.344137 
L 1087.862406 144.482285 
L 1089.404738 138.397307 
L 1090.947069 142.844021 
L 1092.4894 129.737915 
L 1094.031731 141.556814 
L 1095.574062 139.09942 
L 1097.116393 145.418435 
L 1098.658725 134.886743 
L 1100.201056 143.780172 
L 1101.743387 144.833341 
L 1103.285718 140.152589 
L 1104.828049 140.269608 
L 1106.370381 142.609984 
L 1107.912712 140.620664 
L 1109.455043 140.854702 
L 1110.997374 134.18463 
L 1112.539705 141.556814 
L 1114.082037 139.216438 
L 1115.624368 135.939912 
L 1117.166699 143.897191 
L 1118.70903 137.1101 
L 1120.251361 141.556814 
L 1121.793692 140.269608 
L 1123.336024 134.886743 
L 1124.878355 134.418667 
L 1126.420686 139.450476 
L 1127.963017 141.439796 
L 1129.505348 142.727003 
L 1131.04768 135.354818 
L 1132.590011 146.237567 
L 1134.132342 137.812213 
L 1135.674673 133.950592 
L 1137.217004 138.514326 
L 1138.759336 138.163269 
L 1140.301667 136.407987 
L 1141.843998 138.04625 
L 1143.386329 133.365498 
L 1144.92866 133.248479 
L 1146.470991 135.588855 
L 1148.013323 140.03557 
L 1149.555654 139.09942 
L 1151.097985 137.344137 
L 1152.640316 152.79062 
L 1155.724979 132.663385 
L 1157.26731 133.599536 
L 1158.809641 131.844254 
L 1160.351972 134.301648 
L 1161.894303 131.142141 
L 1163.436635 130.088971 
L 1164.978966 139.216438 
L 1166.521297 130.674065 
L 1168.063628 133.248479 
L 1169.605959 135.12078 
L 1171.14829 128.918783 
L 1172.690622 133.365498 
L 1174.232953 138.982401 
L 1175.775284 131.25916 
L 1177.317615 133.482517 
L 1178.859946 130.440028 
L 1180.402278 132.429348 
L 1181.944609 129.737915 
L 1183.48694 135.705874 
L 1185.029271 132.312329 
L 1186.571602 135.003761 
L 1188.113933 130.674065 
L 1189.656265 129.854934 
L 1191.198596 141.556814 
L 1192.740927 133.950592 
L 1194.283258 144.599303 
L 1195.825589 139.216438 
L 1197.367921 143.195078 
L 1198.910252 133.13146 
L 1200.452583 127.28052 
L 1201.994914 131.610216 
L 1203.537245 129.737915 
L 1205.079577 136.173949 
L 1206.621908 149.397075 
L 1208.164239 135.471837 
L 1209.70657 134.418667 
L 1211.248901 138.397307 
L 1212.791232 132.546366 
L 1214.333564 132.897423 
L 1215.875895 133.833573 
L 1217.418226 138.514326 
L 1218.960557 135.471837 
L 1220.502888 138.397307 
L 1222.04522 137.695194 
L 1223.587551 136.056931 
L 1225.129882 131.844254 
L 1226.672213 134.301648 
L 1228.214544 138.514326 
L 1229.756876 129.152821 
L 1231.299207 133.482517 
L 1232.841538 136.173949 
L 1234.383869 134.886743 
L 1235.9262 128.684746 
L 1237.468531 133.13146 
L 1239.010863 136.642025 
L 1240.553194 130.908103 
L 1242.095525 125.876294 
L 1243.637856 133.13146 
L 1245.180187 130.323009 
L 1246.722519 129.854934 
L 1248.26485 129.854934 
L 1249.807181 132.663385 
L 1251.349512 136.642025 
L 1252.891843 130.557047 
L 1254.434175 126.929464 
L 1255.976506 140.03557 
L 1257.518837 131.961272 
L 1259.061168 125.525238 
L 1260.603499 127.397539 
L 1262.14583 133.014442 
L 1263.688162 136.290968 
L 1265.230493 127.163501 
L 1266.772824 137.812213 
L 1268.315155 136.993081 
L 1269.857486 130.908103 
L 1271.399818 132.429348 
L 1272.942149 137.461156 
L 1272.942149 137.461156 
" clip-path="url(#p2b3261dfc8)" style="fill: none; stroke: #d62728; stroke-width: 1.5; stroke-linecap: square"/>
   </g>
   <g id="patch_8">
    <path d="M 788.727273 640.8 
L 788.727273 86.4 
" style="fill: none; stroke: #000000; stroke-width: 0.8; stroke-linejoin: miter; stroke-linecap: square"/>
   </g>
   <g id="patch_9">
    <path d="M 1296 640.8 
L 1296 86.4 
" style="fill: none; stroke: #000000; stroke-width: 0.8; stroke-linejoin: miter; stroke-linecap: square"/>
   </g>
   <g id="patch_10">
    <path d="M 788.727273 640.8 
L 1296 640.8 
" style="fill: none; stroke: #000000; stroke-width: 0.8; stroke-linejoin: miter; stroke-linecap: square"/>
   </g>
   <g id="patch_11">
    <path d="M 788.727273 86.4 
L 1296 86.4 
" style="fill: none; stroke: #000000; stroke-width: 0.8; stroke-linejoin: miter; stroke-linecap: square"/>
   </g>
   <g id="text_25">
    <!-- Accuracy -->
    <g transform="translate(1014.969886 80.4) scale(0.12 -0.12)">
     <defs>
      <path id="DejaVuSans-41" d="M 2188 4044 
L 1331 1722 
L 3047 1722 
L 2188 4044 
z
M 1831 4666 
L 2547 4666 
L 4325 0 
L 3669 0 
L 3244 1197 
L 1141 1197 
L 716 0 
L 50 0 
L 1831 4666 
z
" transform="scale(0.015625)"/>
      <path id="DejaVuSans-63" d="M 3122 3366 
L 3122 2828 
Q 2878 2963 2633 3030 
Q 2388 3097 2138 3097 
Q 1578 3097 1268 2742 
Q 959 2388 959 1747 
Q 959 1106 1268 751 
Q 1578 397 2138 397 
Q 2388 397 2633 464 
Q 2878 531 3122 666 
L 3122 134 
Q 2881 22 2623 -34 
Q 2366 -91 2075 -91 
Q 1284 -91 818 406 
Q 353 903 353 1747 
Q 353 2603 823 3093 
Q 1294 3584 2113 3584 
Q 2378 3584 2631 3529 
Q 2884 3475 3122 3366 
z
" transform="scale(0.015625)"/>
      <path id="DejaVuSans-75" d="M 544 1381 
L 544 3500 
L 1119 3500 
L 1119 1403 
Q 1119 906 1312 657 
Q 1506 409 1894 409 
Q 2359 409 2629 706 
Q 2900 1003 2900 1516 
L 2900 3500 
L 3475 3500 
L 3475 0 
L 2900 0 
L 2900 538 
Q 2691 219 2414 64 
Q 2138 -91 1772 -91 
Q 1169 -91 856 284 
Q 544 659 544 1381 
z
M 1991 3584 
L 1991 3584 
z
" transform="scale(0.015625)"/>
      <path id="DejaVuSans-72" d="M 2631 2963 
Q 2534 3019 2420 3045 
Q 2306 3072 2169 3072 
Q 1681 3072 1420 2755 
Q 1159 2438 1159 1844 
L 1159 0 
L 581 0 
L 581 3500 
L 1159 3500 
L 1159 2956 
Q 1341 3275 1631 3429 
Q 1922 3584 2338 3584 
Q 2397 3584 2469 3576 
Q 2541 3569 2628 3553 
L 2631 2963 
z
" transform="scale(0.015625)"/>
      <path id="DejaVuSans-61" d="M 2194 1759 
Q 1497 1759 1228 1600 
Q 959 1441 959 1056 
Q 959 750 1161 570 
Q 1363 391 1709 391 
Q 2188 391 2477 730 
Q 2766 1069 2766 1631 
L 2766 1759 
L 2194 1759 
z
M 3341 1997 
L 3341 0 
L 2766 0 
L 2766 531 
Q 2569 213 2275 61 
Q 1981 -91 1556 -91 
Q 1019 -91 701 211 
Q 384 513 384 1019 
Q 384 1609 779 1909 
Q 1175 2209 1959 2209 
L 2766 2209 
L 2766 2266 
Q 2766 2663 2505 2880 
Q 2244 3097 1772 3097 
Q 1472 3097 1187 3025 
Q 903 2953 641 2809 
L 641 3341 
Q 956 3463 1253 3523 
Q 1550 3584 1831 3584 
Q 2591 3584 2966 3190 
Q 3341 2797 3341 1997 
z
" transform="scale(0.015625)"/>
      <path id="DejaVuSans-79" d="M 2059 -325 
Q 1816 -950 1584 -1140 
Q 1353 -1331 966 -1331 
L 506 -1331 
L 506 -850 
L 844 -850 
Q 1081 -850 1212 -737 
Q 1344 -625 1503 -206 
L 1606 56 
L 191 3500 
L 800 3500 
L 1894 763 
L 2988 3500 
L 3597 3500 
L 2059 -325 
z
" transform="scale(0.015625)"/>
     </defs>
     <use xlink:href="#DejaVuSans-41"/>
     <use xlink:href="#DejaVuSans-63" x="66.658203"/>
     <use xlink:href="#DejaVuSans-63" x="121.638672"/>
     <use xlink:href="#DejaVuSans-75" x="176.619141"/>
     <use xlink:href="#DejaVuSans-72" x="239.998047"/>
     <use xlink:href="#DejaVuSans-61" x="281.111328"/>
     <use xlink:href="#DejaVuSans-63" x="342.390625"/>
     <use xlink:href="#DejaVuSans-79" x="397.371094"/>
    </g>
   </g>
   <g id="legend_1">
    <g id="patch_12">
     <path d="M 795.727273 153.1125 
L 853.177273 153.1125 
Q 855.177273 153.1125 855.177273 151.1125 
L 855.177273 93.4 
Q 855.177273 91.4 853.177273 91.4 
L 795.727273 91.4 
Q 793.727273 91.4 793.727273 93.4 
L 793.727273 151.1125 
Q 793.727273 153.1125 795.727273 153.1125 
z
" style="fill: #ffffff; opacity: 0.8; stroke: #cccccc; stroke-linejoin: miter"/>
    </g>
    <g id="line2d_32">
     <path d="M 797.727273 99.498437 
L 807.727273 99.498437 
L 817.727273 99.498437 
" style="fill: none; stroke: #1f77b4; stroke-width: 1.5; stroke-linecap: square"/>
    </g>
    <g id="text_26">
     <!-- 1000 -->
     <g transform="translate(825.727273 102.998437) scale(0.1 -0.1)">
      <use xlink:href="#DejaVuSans-31"/>
      <use xlink:href="#DejaVuSans-30" x="63.623047"/>
      <use xlink:href="#DejaVuSans-30" x="127.246094"/>
      <use xlink:href="#DejaVuSans-30" x="190.869141"/>
     </g>
    </g>
    <g id="line2d_33">
     <path d="M 797.727273 114.176562 
L 807.727273 114.176562 
L 817.727273 114.176562 
" style="fill: none; stroke: #ff7f0e; stroke-width: 1.5; stroke-linecap: square"/>
    </g>
    <g id="text_27">
     <!-- 100 -->
     <g transform="translate(825.727273 117.676562) scale(0.1 -0.1)">
      <use xlink:href="#DejaVuSans-31"/>
      <use xlink:href="#DejaVuSans-30" x="63.623047"/>
      <use xlink:href="#DejaVuSans-30" x="127.246094"/>
     </g>
    </g>
    <g id="line2d_34">
     <path d="M 797.727273 128.854687 
L 807.727273 128.854687 
L 817.727273 128.854687 
" style="fill: none; stroke: #2ca02c; stroke-width: 1.5; stroke-linecap: square"/>
    </g>
    <g id="text_28">
     <!-- 2000 -->
     <g transform="translate(825.727273 132.354687) scale(0.1 -0.1)">
      <use xlink:href="#DejaVuSans-32"/>
      <use xlink:href="#DejaVuSans-30" x="63.623047"/>
      <use xlink:href="#DejaVuSans-30" x="127.246094"/>
      <use xlink:href="#DejaVuSans-30" x="190.869141"/>
     </g>
    </g>
    <g id="line2d_35">
     <path d="M 797.727273 143.532812 
L 807.727273 143.532812 
L 817.727273 143.532812 
" style="fill: none; stroke: #d62728; stroke-width: 1.5; stroke-linecap: square"/>
    </g>
    <g id="text_29">
     <!-- 250 -->
     <g transform="translate(825.727273 147.032812) scale(0.1 -0.1)">
      <use xlink:href="#DejaVuSans-32"/>
      <use xlink:href="#DejaVuSans-35" x="63.623047"/>
      <use xlink:href="#DejaVuSans-30" x="127.246094"/>
     </g>
    </g>
   </g>
  </g>
 </g>
 <defs>
  <clipPath id="peee014c8cb">
   <rect x="180" y="86.4" width="507.272727" height="554.4"/>
  </clipPath>
  <clipPath id="p2b3261dfc8">
   <rect x="788.727273" y="86.4" width="507.272727" height="554.4"/>
  </clipPath>
 </defs>
</svg>
